<svg class="railroad" viewBox="0 0 662 1941" xmlns="http://www.w3.org/2000/svg" xmlns:xlink="http://www.w3.org/1999/xlink">
<style type="text/css">
svg.railroad {
background-color: hsl(30, 20%, 95%);
background-size: 15px 15px;
background-image: linear-gradient(to right, rgba(30, 30, 30, .05) 1px, transparent 1px),
		  linear-gradient(to bottom, rgba(30, 30, 30, .05) 1px, transparent 1px);
}

svg.railroad rect.railroad_canvas {
stroke-width: 0px;
fill: none;
}

svg.railroad path {
stroke-width: 3px;
stroke: black;
fill: none;
}

svg.railroad .debug {
stroke-width: 1px;
stroke: red;
}

svg.railroad text {
font: 14px monospace;
text-anchor: middle;
}

svg.railroad .nonterminal text {
font-weight: bold;
}

svg.railroad text.comment {
font: italic 12px monospace;
}

svg.railroad rect {
stroke-width: 3px;
stroke: black;
fill:hsl(-290, 70%, 90%);
}

svg.railroad g.labeledbox > rect {
stroke-width: 1px;
stroke: grey;
stroke-dasharray: 5px;
fill:rgba(90, 90, 150, .1);
}
</style>
<rect class="railroad_canvas" height="100%" width="100%"/>
<g class="verticalgrid">
<g class="verticalgrid">
<text class="comment" x="39" y="25">
grammar</text>
<g class="sequence">
<path d=" M 10 53 a 5 5 0 0 1 5 -5 a 5 5 0 0 1 5 5 a 5 5 0 0 1 -5 5 a 5 5 0 0 1 -5 -5 m 10 0 h 5"/>
<g class="sequence">
<g class="nonterminal">
<rect height="22" width="44" x="35" y="42"/>
<text x="57" y="58">
SOI</text>
</g>
<g class="choice">
<path d=" M 89 53 h 24 m 0 0 h 140 m -67 0 l -5 -5 m 0 10 l 5 -5 m 67 0"/>
<g/>
<path d=" M 89 53 a 12 12 0 0 1 12 12 v 0 m 140 0 v 0 a 12 12 0 0 1 12 -12"/>
<path d=" M 101 65 v 0 a 12 12 0 0 0 12 12 m 116 0 h 0 a 12 12 0 0 0 12 -12 v 0"/>
<g class="repeat">
<path d=" M 113 77 h 12 m 92 0 h 12 m -12 0 a 12 12 0 0 1 12 12 v 0 a 12 12 0 0 1 -12 12 m 0 0 h -92 m 49 0 l 5 -5 m 0 10 l -5 -5 m -49 0 a 12 12 0 0 1 -12 -12 v 0 a 12 12 0 0 1 12 -12"/>
<g/>
<g class="nonterminal">
<rect height="22" width="92" x="125" y="66"/>
<text x="171" y="82">
func_decl</text>
</g>
</g>
</g>
<g class="nonterminal">
<rect height="22" width="44" x="263" y="42"/>
<text x="285" y="58">
EOI</text>
</g>
<path d=" M 79 53 h 10"/>
<path d=" M 253 53 h 10"/>
</g>
<path d=" M 317 53 h 5 a 5 5 0 0 1 5 -5 a 5 5 0 0 1 5 5 a 5 5 0 0 1 -5 5 a 5 5 0 0 1 -5 -5"/>
<path d=" M 25 53 h 10"/>
<path d=" M 307 53 h 10"/>
</g>
</g>
<g class="verticalgrid">
<text class="comment" x="46" y="128">
func_decl</text>
<g class="sequence">
<path d=" M 10 169 a 5 5 0 0 1 5 -5 a 5 5 0 0 1 5 5 a 5 5 0 0 1 -5 5 a 5 5 0 0 1 -5 -5 m 10 0 h 5"/>
<g class="sequence">
<g class="terminal">
<rect height="22" rx="10" ry="10" width="68" x="35" y="158"/>
<text x="69" y="174">
&quot;func&quot;</text>
</g>
<g class="nonterminal">
<rect height="22" width="60" x="113" y="158"/>
<text x="143" y="174">
ident</text>
</g>
<g class="terminal">
<rect height="22" rx="10" ry="10" width="44" x="183" y="158"/>
<text x="205" y="174">
&quot;(&quot;</text>
</g>
<g class="optional">
<path d=" M 237 169 h 24 m -24 0 a 12 12 0 0 0 12 -12 v 0 a 12 12 0 0 1 12 -12 h 92 m -43 0 l -5 -5 m 0 10 l 5 -5 m 43 0 a 12 12 0 0 1 12 12 v 0 a 12 12 0 0 0 12 12 h -24"/>
<g class="nonterminal">
<rect height="22" width="92" x="261" y="158"/>
<text x="307" y="174">
func_args</text>
</g>
</g>
<g class="terminal">
<rect height="22" rx="10" ry="10" width="44" x="387" y="158"/>
<text x="409" y="174">
&quot;)&quot;</text>
</g>
<g class="nonterminal">
<rect height="22" width="92" x="441" y="158"/>
<text x="487" y="174">
func_tail</text>
</g>
<path d=" M 103 169 h 10"/>
<path d=" M 173 169 h 10"/>
<path d=" M 227 169 h 10"/>
<path d=" M 377 169 h 10"/>
<path d=" M 431 169 h 10"/>
</g>
<path d=" M 543 169 h 5 a 5 5 0 0 1 5 -5 a 5 5 0 0 1 5 5 a 5 5 0 0 1 -5 5 a 5 5 0 0 1 -5 -5"/>
<path d=" M 25 169 h 10"/>
<path d=" M 533 169 h 10"/>
</g>
</g>
<g class="verticalgrid">
<text class="comment" x="46" y="207">
func_args</text>
<g class="sequence">
<path d=" M 10 248 a 5 5 0 0 1 5 -5 a 5 5 0 0 1 5 5 a 5 5 0 0 1 -5 5 a 5 5 0 0 1 -5 -5 m 10 0 h 5"/>
<g class="sequence">
<g class="nonterminal">
<rect height="22" width="84" x="35" y="237"/>
<text x="77" y="253">
func_arg</text>
</g>
<g class="choice">
<path d=" M 129 248 h 24 m 0 0 h 186 m -90 0 l -5 -5 m 0 10 l 5 -5 m 90 0"/>
<g/>
<path d=" M 129 248 a 12 12 0 0 1 12 12 v 0 m 186 0 v 0 a 12 12 0 0 1 12 -12"/>
<path d=" M 141 260 v 0 a 12 12 0 0 0 12 12 m 162 0 h 0 a 12 12 0 0 0 12 -12 v 0"/>
<g class="repeat">
<path d=" M 153 272 h 12 m 138 0 h 12 m -12 0 a 12 12 0 0 1 12 12 v 0 a 12 12 0 0 1 -12 12 m 0 0 h -138 m 72 0 l 5 -5 m 0 10 l -5 -5 m -72 0 a 12 12 0 0 1 -12 -12 v 0 a 12 12 0 0 1 12 -12"/>
<g/>
<g class="sequence">
<g class="terminal">
<rect height="22" rx="10" ry="10" width="44" x="165" y="261"/>
<text x="187" y="277">
&quot;,&quot;</text>
</g>
<g class="nonterminal">
<rect height="22" width="84" x="219" y="261"/>
<text x="261" y="277">
func_arg</text>
</g>
<path d=" M 209 272 h 10"/>
</g>
</g>
</g>
<g class="optional">
<path d=" M 349 248 h 24 m -24 0 a 12 12 0 0 0 12 -12 v 0 a 12 12 0 0 1 12 -12 h 44 a 12 12 0 0 1 12 12 v 0 a 12 12 0 0 0 12 12 h -24"/>
<g class="terminal">
<rect height="22" rx="10" ry="10" width="44" x="373" y="237"/>
<text x="395" y="253">
&quot;,&quot;</text>
</g>
</g>
<path d=" M 119 248 h 10"/>
<path d=" M 339 248 h 10"/>
</g>
<path d=" M 451 248 h 5 a 5 5 0 0 1 5 -5 a 5 5 0 0 1 5 5 a 5 5 0 0 1 -5 5 a 5 5 0 0 1 -5 -5"/>
<path d=" M 25 248 h 10"/>
<path d=" M 441 248 h 10"/>
</g>
</g>
<g class="verticalgrid">
<text class="comment" x="43" y="323">
func_arg</text>
<g class="sequence">
<path d=" M 10 364 a 5 5 0 0 1 5 -5 a 5 5 0 0 1 5 5 a 5 5 0 0 1 -5 5 a 5 5 0 0 1 -5 -5 m 10 0 h 5"/>
<g class="sequence">
<g class="nonterminal">
<rect height="22" width="60" x="35" y="353"/>
<text x="65" y="369">
ident</text>
</g>
<g class="choice">
<path d=" M 105 364 h 24 m 0 0 h 162 m -78 0 l -5 -5 m 0 10 l 5 -5 m 78 0"/>
<g/>
<path d=" M 105 364 a 12 12 0 0 1 12 12 v 0 m 162 0 v 0 a 12 12 0 0 1 12 -12"/>
<path d=" M 117 376 v 0 a 12 12 0 0 0 12 12 m 138 0 h 0 a 12 12 0 0 0 12 -12 v 0"/>
<g class="repeat">
<path d=" M 129 388 h 12 m 114 0 h 12 m -12 0 a 12 12 0 0 1 12 12 v 0 a 12 12 0 0 1 -12 12 m 0 0 h -114 m 60 0 l 5 -5 m 0 10 l -5 -5 m -60 0 a 12 12 0 0 1 -12 -12 v 0 a 12 12 0 0 1 12 -12"/>
<g/>
<g class="sequence">
<g class="terminal">
<rect height="22" rx="10" ry="10" width="44" x="141" y="377"/>
<text x="163" y="393">
&quot;,&quot;</text>
</g>
<g class="nonterminal">
<rect height="22" width="60" x="195" y="377"/>
<text x="225" y="393">
ident</text>
</g>
<path d=" M 185 388 h 10"/>
</g>
</g>
</g>
<g class="terminal">
<rect height="22" rx="10" ry="10" width="44" x="301" y="353"/>
<text x="323" y="369">
&quot;:&quot;</text>
</g>
<g class="nonterminal">
<rect height="22" width="52" x="355" y="353"/>
<text x="381" y="369">
type</text>
</g>
<g class="optional">
<path d=" M 417 364 h 24 m -24 0 a 12 12 0 0 0 12 -12 v 0 a 12 12 0 0 1 12 -12 h 162 m -78 0 l -5 -5 m 0 10 l 5 -5 m 78 0 a 12 12 0 0 1 12 12 v 0 a 12 12 0 0 0 12 12 h -24"/>
<g class="sequence">
<g class="terminal">
<rect height="22" rx="10" ry="10" width="44" x="441" y="353"/>
<text x="463" y="369">
&quot;=&quot;</text>
</g>
<g class="nonterminal">
<rect height="22" width="108" x="495" y="353"/>
<text x="549" y="369">
simple_expr</text>
</g>
<path d=" M 485 364 h 10"/>
</g>
</g>
<path d=" M 95 364 h 10"/>
<path d=" M 291 364 h 10"/>
<path d=" M 345 364 h 10"/>
<path d=" M 407 364 h 10"/>
</g>
<path d=" M 637 364 h 5 a 5 5 0 0 1 5 -5 a 5 5 0 0 1 5 5 a 5 5 0 0 1 -5 5 a 5 5 0 0 1 -5 -5"/>
<path d=" M 25 364 h 10"/>
<path d=" M 627 364 h 10"/>
</g>
</g>
<g class="verticalgrid">
<text class="comment" x="46" y="439">
func_tail</text>
<g class="sequence">
<path d=" M 10 467 a 5 5 0 0 1 5 -5 a 5 5 0 0 1 5 5 a 5 5 0 0 1 -5 5 a 5 5 0 0 1 -5 -5 m 10 0 h 5"/>
<g class="choice">
<path d=" M 35 467 h 24 m 100 0 h 32"/>
<g class="nonterminal">
<rect height="22" width="100" x="59" y="456"/>
<text x="109" y="472">
func_arrow</text>
</g>
<path d=" M 35 467 a 12 12 0 0 1 12 12 v 9 m 132 0 v -9 a 12 12 0 0 1 12 -12"/>
<path d=" M 47 488 v 33 m 132 0 v -33"/>
<path d=" M 47 488 v 0 a 12 12 0 0 0 12 12 m 92 0 h 16 a 12 12 0 0 0 12 -12 v 0"/>
<g class="nonterminal">
<rect height="22" width="92" x="59" y="489"/>
<text x="105" y="505">
func_body</text>
</g>
<path d=" M 47 521 v 0 a 12 12 0 0 0 12 12 m 108 0 h 0 a 12 12 0 0 0 12 -12 v 0"/>
<g class="nonterminal">
<rect height="22" width="108" x="59" y="522"/>
<text x="113" y="538">
simple_expr</text>
</g>
</g>
<path d=" M 201 467 h 5 a 5 5 0 0 1 5 -5 a 5 5 0 0 1 5 5 a 5 5 0 0 1 -5 5 a 5 5 0 0 1 -5 -5"/>
<path d=" M 25 467 h 10"/>
<path d=" M 191 467 h 10"/>
</g>
</g>
<g class="verticalgrid">
<text class="comment" x="50" y="571">
func_arrow</text>
<g class="sequence">
<path d=" M 10 635 a 5 5 0 0 1 5 -5 a 5 5 0 0 1 5 5 a 5 5 0 0 1 -5 5 a 5 5 0 0 1 -5 -5 m 10 0 h 5"/>
<g class="sequence">
<g class="terminal">
<rect height="22" rx="10" ry="10" width="52" x="35" y="624"/>
<text x="61" y="640">
&quot;-&gt;&quot;</text>
</g>
<g class="choice">
<path d=" M 97 635 h 24 m 344 0 h 24"/>
<g class="sequence">
<g class="labeledbox">
<rect height="66" width="180" x="121" y="588"/>
<path d=" M 121 635 h 8 m 106 0 h 66 m -30 0 l -5 -5 m 0 10 l 5 -5 m 30 0"/>
<text class="comment" x="211" y="611">
Lookahead: Must match</text>
<g class="sequence">
<g class="nonterminal">
<rect height="22" width="52" x="129" y="624"/>
<text x="155" y="640">
type</text>
</g>
<g class="terminal">
<rect height="22" rx="10" ry="10" width="44" x="191" y="624"/>
<text x="213" y="640">
&quot;:&quot;</text>
</g>
<path d=" M 181 635 h 10"/>
</g>
</g>
<g class="nonterminal">
<rect height="22" width="52" x="311" y="624"/>
<text x="337" y="640">
type</text>
</g>
<g class="nonterminal">
<rect height="22" width="92" x="373" y="624"/>
<text x="419" y="640">
func_body</text>
</g>
<path d=" M 301 635 h 10"/>
<path d=" M 363 635 h 10"/>
</g>
<path d=" M 97 635 a 12 12 0 0 1 12 12 v 17 m 368 0 v -17 a 12 12 0 0 1 12 -12"/>
<path d=" M 109 664 v 0 a 12 12 0 0 0 12 12 m 108 0 h 236 m -115 0 l -5 -5 m 0 10 l 5 -5 m 115 0 a 12 12 0 0 0 12 -12 v 0"/>
<g class="nonterminal">
<rect height="22" width="108" x="121" y="665"/>
<text x="175" y="681">
simple_expr</text>
</g>
</g>
<path d=" M 87 635 h 10"/>
</g>
<path d=" M 499 635 h 5 a 5 5 0 0 1 5 -5 a 5 5 0 0 1 5 5 a 5 5 0 0 1 -5 5 a 5 5 0 0 1 -5 -5"/>
<path d=" M 25 635 h 10"/>
<path d=" M 489 635 h 10"/>
</g>
</g>
<g class="verticalgrid">
<text class="comment" x="46" y="714">
func_body</text>
<g class="sequence">
<path d=" M 10 778 a 5 5 0 0 1 5 -5 a 5 5 0 0 1 5 5 a 5 5 0 0 1 -5 5 a 5 5 0 0 1 -5 -5 m 10 0 h 5"/>
<g class="sequence">
<g class="terminal">
<rect height="22" rx="10" ry="10" width="44" x="35" y="767"/>
<text x="57" y="783">
&quot;:&quot;</text>
</g>
<g class="repeat">
<path d=" M 89 778 h 12 m 249 0 h 12 m -12 0 a 12 12 0 0 1 12 12 v 5 a 12 12 0 0 1 -12 12 m 0 0 h -249 m 127 0 l 5 -5 m 0 10 l -5 -5 m -127 0 a 12 12 0 0 1 -12 -12 v -5 a 12 12 0 0 1 12 -12"/>
<g/>
<g class="sequence">
<g class="labeledbox">
<rect height="66" width="187" x="101" y="731"/>
<path d=" M 101 778 h 8 m 60 0 h 119 m -56 0 l -5 -5 m 0 10 l 5 -5 m 56 0"/>
<text class="comment" x="194" y="754">
Lookahead: Can&#x27;t match</text>
<g class="terminal">
<rect height="22" rx="10" ry="10" width="60" x="109" y="767"/>
<text x="139" y="783">
&quot;end&quot;</text>
</g>
</g>
<g class="nonterminal">
<rect height="22" width="52" x="298" y="767"/>
<text x="324" y="783">
expr</text>
</g>
<path d=" M 288 778 h 10"/>
</g>
</g>
<g class="terminal">
<rect height="22" rx="10" ry="10" width="60" x="372" y="767"/>
<text x="402" y="783">
&quot;end&quot;</text>
</g>
<path d=" M 79 778 h 10"/>
<path d=" M 362 778 h 10"/>
</g>
<path d=" M 442 778 h 5 a 5 5 0 0 1 5 -5 a 5 5 0 0 1 5 5 a 5 5 0 0 1 -5 5 a 5 5 0 0 1 -5 -5"/>
<path d=" M 25 778 h 10"/>
<path d=" M 432 778 h 10"/>
</g>
</g>
<g class="verticalgrid">
<text class="comment" x="32" y="834">
ident</text>
<g class="sequence">
<path d=" M 10 862 a 5 5 0 0 1 5 -5 a 5 5 0 0 1 5 5 a 5 5 0 0 1 -5 5 a 5 5 0 0 1 -5 -5 m 10 0 h 5"/>
<g class="sequence">
<g class="choice">
<path d=" M 35 862 h 24 m 44 0 h 88 m -41 0 l -5 -5 m 0 10 l 5 -5 m 41 0"/>
<g class="terminal">
<rect height="22" rx="10" ry="10" width="44" x="59" y="851"/>
<text x="81" y="867">
&quot;_&quot;</text>
</g>
<path d=" M 35 862 a 12 12 0 0 1 12 12 v 9 m 132 0 v -9 a 12 12 0 0 1 12 -12"/>
<path d=" M 47 883 v 0 a 12 12 0 0 0 12 12 m 108 0 h 0 a 12 12 0 0 0 12 -12 v 0"/>
<g class="nonterminal">
<rect height="22" width="108" x="59" y="884"/>
<text x="113" y="900">
ASCII_ALPHA</text>
</g>
</g>
<g class="choice">
<path d=" M 201 862 h 24 m 0 0 h 204 m -99 0 l -5 -5 m 0 10 l 5 -5 m 99 0"/>
<g/>
<path d=" M 201 862 a 12 12 0 0 1 12 12 v 0 m 204 0 v 0 a 12 12 0 0 1 12 -12"/>
<path d=" M 213 874 v 0 a 12 12 0 0 0 12 12 m 180 0 h 0 a 12 12 0 0 0 12 -12 v 0"/>
<g class="repeat">
<path d=" M 225 886 h 12 m 156 0 h 12 m -12 0 a 12 12 0 0 1 12 12 v 63 m 0 -28 l -5 -5 m 10 0 l -5 5 m 0 28 a 12 12 0 0 1 -12 12 m 0 0 h -156 m 81 0 l 5 -5 m 0 10 l -5 -5 m -81 0 a 12 12 0 0 1 -12 -12 v -63 m 0 34 l -5 5 m 10 0 l -5 -5 m 0 -34 a 12 12 0 0 1 12 -12"/>
<g/>
<g class="choice">
<path d=" M 237 886 h 24 m 44 0 h 88 m -41 0 l -5 -5 m 0 10 l 5 -5 m 41 0"/>
<g class="terminal">
<rect height="22" rx="10" ry="10" width="44" x="261" y="875"/>
<text x="283" y="891">
&quot;_&quot;</text>
</g>
<path d=" M 237 886 a 12 12 0 0 1 12 12 v 9 m 132 0 v -9 a 12 12 0 0 1 12 -12"/>
<path d=" M 249 907 v 33 m 132 0 v -33"/>
<path d=" M 249 907 v 0 a 12 12 0 0 0 12 12 m 108 0 h 0 a 12 12 0 0 0 12 -12 v 0"/>
<g class="nonterminal">
<rect height="22" width="108" x="261" y="908"/>
<text x="315" y="924">
ASCII_ALPHA</text>
</g>
<path d=" M 249 940 v 0 a 12 12 0 0 0 12 12 m 108 0 h 0 a 12 12 0 0 0 12 -12 v 0"/>
<g class="nonterminal">
<rect height="22" width="108" x="261" y="941"/>
<text x="315" y="957">
ASCII_DIGIT</text>
</g>
</g>
</g>
</g>
<path d=" M 191 862 h 10"/>
</g>
<path d=" M 439 862 h 5 a 5 5 0 0 1 5 -5 a 5 5 0 0 1 5 5 a 5 5 0 0 1 -5 5 a 5 5 0 0 1 -5 -5"/>
<path d=" M 25 862 h 10"/>
<path d=" M 429 862 h 10"/>
</g>
</g>
<g class="verticalgrid">
<text class="comment" x="29" y="1000">
type</text>
<g class="sequence">
<path d=" M 10 1028 a 5 5 0 0 1 5 -5 a 5 5 0 0 1 5 5 a 5 5 0 0 1 -5 5 a 5 5 0 0 1 -5 -5 m 10 0 h 5"/>
<g class="nonterminal">
<rect height="22" width="60" x="35" y="1017"/>
<text x="65" y="1033">
ident</text>
</g>
<path d=" M 105 1028 h 5 a 5 5 0 0 1 5 -5 a 5 5 0 0 1 5 5 a 5 5 0 0 1 -5 5 a 5 5 0 0 1 -5 -5"/>
<path d=" M 25 1028 h 10"/>
<path d=" M 95 1028 h 10"/>
</g>
</g>
<g class="verticalgrid">
<text class="comment" x="53" y="1066">
simple_expr</text>
<g class="sequence">
<path d=" M 10 1094 a 5 5 0 0 1 5 -5 a 5 5 0 0 1 5 5 a 5 5 0 0 1 -5 5 a 5 5 0 0 1 -5 -5 m 10 0 h 5"/>
<g class="choice">
<path d=" M 35 1094 h 24 m 44 0 h 140 m -67 0 l -5 -5 m 0 10 l 5 -5 m 67 0"/>
<g class="terminal">
<rect height="22" rx="10" ry="10" width="44" x="59" y="1083"/>
<text x="81" y="1099">
&quot;1&quot;</text>
</g>
<path d=" M 35 1094 a 12 12 0 0 1 12 12 v 9 m 184 0 v -9 a 12 12 0 0 1 12 -12"/>
<path d=" M 47 1115 v 33 m 184 0 v -33"/>
<path d=" M 47 1115 v 0 a 12 12 0 0 0 12 12 m 60 0 h 100 m -47 0 l -5 -5 m 0 10 l 5 -5 m 47 0 a 12 12 0 0 0 12 -12 v 0"/>
<g class="nonterminal">
<rect height="22" width="60" x="59" y="1116"/>
<text x="89" y="1132">
ident</text>
</g>
<path d=" M 47 1148 v 0 a 12 12 0 0 0 12 12 m 160 0 h 0 a 12 12 0 0 0 12 -12 v 0"/>
<g class="sequence">
<g class="terminal">
<rect height="22" rx="10" ry="10" width="44" x="59" y="1149"/>
<text x="81" y="1165">
&quot;(&quot;</text>
</g>
<g class="nonterminal">
<rect height="22" width="52" x="113" y="1149"/>
<text x="139" y="1165">
expr</text>
</g>
<g class="terminal">
<rect height="22" rx="10" ry="10" width="44" x="175" y="1149"/>
<text x="197" y="1165">
&quot;)&quot;</text>
</g>
<path d=" M 103 1160 h 10"/>
<path d=" M 165 1160 h 10"/>
</g>
</g>
<path d=" M 253 1094 h 5 a 5 5 0 0 1 5 -5 a 5 5 0 0 1 5 5 a 5 5 0 0 1 -5 5 a 5 5 0 0 1 -5 -5"/>
<path d=" M 25 1094 h 10"/>
<path d=" M 243 1094 h 10"/>
</g>
</g>
<g class="verticalgrid">
<text class="comment" x="29" y="1198">
expr</text>
<g class="sequence">
<path d=" M 10 1226 a 5 5 0 0 1 5 -5 a 5 5 0 0 1 5 5 a 5 5 0 0 1 -5 5 a 5 5 0 0 1 -5 -5 m 10 0 h 5"/>
<g class="choice">
<path d=" M 35 1226 h 24 m 108 0 h 24"/>
<g class="nonterminal">
<rect height="22" width="108" x="59" y="1215"/>
<text x="113" y="1231">
simple_expr</text>
</g>
<path d=" M 35 1226 a 12 12 0 0 1 12 12 v 9 m 132 0 v -9 a 12 12 0 0 1 12 -12"/>
<path d=" M 47 1247 v 0 a 12 12 0 0 0 12 12 m 76 0 h 32 a 12 12 0 0 0 12 -12 v 0"/>
<g class="nonterminal">
<rect height="22" width="76" x="59" y="1248"/>
<text x="97" y="1264">
if_expr</text>
</g>
</g>
<path d=" M 201 1226 h 5 a 5 5 0 0 1 5 -5 a 5 5 0 0 1 5 5 a 5 5 0 0 1 -5 5 a 5 5 0 0 1 -5 -5"/>
<path d=" M 25 1226 h 10"/>
<path d=" M 191 1226 h 10"/>
</g>
</g>
<g class="verticalgrid">
<text class="comment" x="39" y="1297">
if_expr</text>
<g class="sequence">
<path d=" M 10 1325 a 5 5 0 0 1 5 -5 a 5 5 0 0 1 5 5 a 5 5 0 0 1 -5 5 a 5 5 0 0 1 -5 -5 m 10 0 h 5"/>
<g class="sequence">
<g class="terminal">
<rect height="22" rx="10" ry="10" width="52" x="35" y="1314"/>
<text x="61" y="1330">
&quot;if&quot;</text>
</g>
<g class="nonterminal">
<rect height="22" width="108" x="97" y="1314"/>
<text x="151" y="1330">
simple_expr</text>
</g>
<g class="terminal">
<rect height="22" rx="10" ry="10" width="68" x="215" y="1314"/>
<text x="249" y="1330">
&quot;then&quot;</text>
</g>
<g class="nonterminal">
<rect height="22" width="76" x="293" y="1314"/>
<text x="331" y="1330">
if_body</text>
</g>
<path d=" M 87 1325 h 10"/>
<path d=" M 205 1325 h 10"/>
<path d=" M 283 1325 h 10"/>
</g>
<path d=" M 379 1325 h 5 a 5 5 0 0 1 5 -5 a 5 5 0 0 1 5 5 a 5 5 0 0 1 -5 5 a 5 5 0 0 1 -5 -5"/>
<path d=" M 25 1325 h 10"/>
<path d=" M 369 1325 h 10"/>
</g>
</g>
<g class="verticalgrid">
<text class="comment" x="39" y="1363">
if_body</text>
<g class="sequence">
<path d=" M 10 1391 a 5 5 0 0 1 5 -5 a 5 5 0 0 1 5 5 a 5 5 0 0 1 -5 5 a 5 5 0 0 1 -5 -5 m 10 0 h 5"/>
<g class="choice">
<path d=" M 35 1391 h 24 m 124 0 h 32"/>
<g class="nonterminal">
<rect height="22" width="124" x="59" y="1380"/>
<text x="121" y="1396">
if_block_body</text>
</g>
<path d=" M 35 1391 a 12 12 0 0 1 12 12 v 9 m 156 0 v -9 a 12 12 0 0 1 12 -12"/>
<path d=" M 47 1412 v 0 a 12 12 0 0 0 12 12 m 132 0 h 0 a 12 12 0 0 0 12 -12 v 0"/>
<g class="nonterminal">
<rect height="22" width="132" x="59" y="1413"/>
<text x="125" y="1429">
if_simple_body</text>
</g>
</g>
<path d=" M 225 1391 h 5 a 5 5 0 0 1 5 -5 a 5 5 0 0 1 5 5 a 5 5 0 0 1 -5 5 a 5 5 0 0 1 -5 -5"/>
<path d=" M 25 1391 h 10"/>
<path d=" M 215 1391 h 10"/>
</g>
</g>
<g class="verticalgrid">
<text class="comment" x="60" y="1462">
if_block_body</text>
<g class="sequence">
<path d=" M 10 1526 a 5 5 0 0 1 5 -5 a 5 5 0 0 1 5 5 a 5 5 0 0 1 -5 5 a 5 5 0 0 1 -5 -5 m 10 0 h 5"/>
<g class="sequence">
<g class="terminal">
<rect height="22" rx="10" ry="10" width="44" x="35" y="1515"/>
<text x="57" y="1531">
&quot;:&quot;</text>
</g>
<g class="repeat">
<path d=" M 89 1526 h 12 m 249 0 h 12 m -12 0 a 12 12 0 0 1 12 12 v 38 a 12 12 0 0 1 -12 12 m 0 0 h -249 m 127 0 l 5 -5 m 0 10 l -5 -5 m -127 0 a 12 12 0 0 1 -12 -12 v -38 a 12 12 0 0 1 12 -12"/>
<g/>
<g class="sequence">
<g class="labeledbox">
<rect height="99" width="187" x="101" y="1479"/>
<path d=" M 101 1526 h 8 m 116 0 h 63 m -28 0 l -5 -5 m 0 10 l 5 -5 m 28 0"/>
<text class="comment" x="194" y="1502">
Lookahead: Can&#x27;t match</text>
<g class="choice">
<path d=" M 109 1526 h 24 m 60 0 h 32"/>
<g class="terminal">
<rect height="22" rx="10" ry="10" width="60" x="133" y="1515"/>
<text x="163" y="1531">
&quot;end&quot;</text>
</g>
<path d=" M 109 1526 a 12 12 0 0 1 12 12 v 9 m 92 0 v -9 a 12 12 0 0 1 12 -12"/>
<path d=" M 121 1547 v 0 a 12 12 0 0 0 12 12 m 68 0 h 0 a 12 12 0 0 0 12 -12 v 0"/>
<g class="terminal">
<rect height="22" rx="10" ry="10" width="68" x="133" y="1548"/>
<text x="167" y="1564">
&quot;else&quot;</text>
</g>
</g>
</g>
<g class="nonterminal">
<rect height="22" width="52" x="298" y="1515"/>
<text x="324" y="1531">
expr</text>
</g>
<path d=" M 288 1526 h 10"/>
</g>
</g>
<g class="choice">
<path d=" M 372 1526 h 24 m 60 0 h 24"/>
<g class="terminal">
<rect height="22" rx="10" ry="10" width="60" x="396" y="1515"/>
<text x="426" y="1531">
&quot;end&quot;</text>
</g>
<path d=" M 372 1526 a 12 12 0 0 1 12 12 v 9 m 84 0 v -9 a 12 12 0 0 1 12 -12"/>
<path d=" M 384 1547 v 0 a 12 12 0 0 0 12 12 m 52 0 h 8 a 12 12 0 0 0 12 -12 v 0"/>
<g class="nonterminal">
<rect height="22" width="52" x="396" y="1548"/>
<text x="422" y="1564">
else</text>
</g>
</g>
<path d=" M 79 1526 h 10"/>
<path d=" M 362 1526 h 10"/>
</g>
<path d=" M 490 1526 h 5 a 5 5 0 0 1 5 -5 a 5 5 0 0 1 5 5 a 5 5 0 0 1 -5 5 a 5 5 0 0 1 -5 -5"/>
<path d=" M 25 1526 h 10"/>
<path d=" M 480 1526 h 10"/>
</g>
</g>
<g class="verticalgrid">
<text class="comment" x="64" y="1615">
if_simple_body</text>
<g class="sequence">
<path d=" M 10 1656 a 5 5 0 0 1 5 -5 a 5 5 0 0 1 5 5 a 5 5 0 0 1 -5 5 a 5 5 0 0 1 -5 -5 m 10 0 h 5"/>
<g class="sequence">
<g class="choice">
<path d=" M 35 1656 h 24 m 76 0 h 56 m -25 0 l -5 -5 m 0 10 l 5 -5 m 25 0"/>
<g class="nonterminal">
<rect height="22" width="76" x="59" y="1645"/>
<text x="97" y="1661">
if_expr</text>
</g>
<path d=" M 35 1656 a 12 12 0 0 1 12 12 v 9 m 132 0 v -9 a 12 12 0 0 1 12 -12"/>
<path d=" M 47 1677 v 0 a 12 12 0 0 0 12 12 m 108 0 h 0 a 12 12 0 0 0 12 -12 v 0"/>
<g class="nonterminal">
<rect height="22" width="108" x="59" y="1678"/>
<text x="113" y="1694">
simple_expr</text>
</g>
</g>
<g class="optional">
<path d=" M 201 1656 h 24 m -24 0 a 12 12 0 0 0 12 -12 v 0 a 12 12 0 0 1 12 -12 h 52 m -23 0 l -5 -5 m 0 10 l 5 -5 m 23 0 a 12 12 0 0 1 12 12 v 0 a 12 12 0 0 0 12 12 h -24"/>
<g class="nonterminal">
<rect height="22" width="52" x="225" y="1645"/>
<text x="251" y="1661">
else</text>
</g>
</g>
<path d=" M 191 1656 h 10"/>
</g>
<path d=" M 311 1656 h 5 a 5 5 0 0 1 5 -5 a 5 5 0 0 1 5 5 a 5 5 0 0 1 -5 5 a 5 5 0 0 1 -5 -5"/>
<path d=" M 25 1656 h 10"/>
<path d=" M 301 1656 h 10"/>
</g>
</g>
<g class="verticalgrid">
<text class="comment" x="29" y="1727">
else</text>
<g class="sequence">
<path d=" M 10 1755 a 5 5 0 0 1 5 -5 a 5 5 0 0 1 5 5 a 5 5 0 0 1 -5 5 a 5 5 0 0 1 -5 -5 m 10 0 h 5"/>
<g class="sequence">
<g class="terminal">
<rect height="22" rx="10" ry="10" width="68" x="35" y="1744"/>
<text x="69" y="1760">
&quot;else&quot;</text>
</g>
<g class="nonterminal">
<rect height="22" width="76" x="113" y="1744"/>
<text x="151" y="1760">
if_body</text>
</g>
<path d=" M 103 1755 h 10"/>
</g>
<path d=" M 199 1755 h 5 a 5 5 0 0 1 5 -5 a 5 5 0 0 1 5 5 a 5 5 0 0 1 -5 5 a 5 5 0 0 1 -5 -5"/>
<path d=" M 25 1755 h 10"/>
<path d=" M 189 1755 h 10"/>
</g>
</g>
<g class="verticalgrid">
<text class="comment" x="81" y="1793">
WHITESPACE (silent)</text>
<g class="sequence">
<path d=" M 10 1821 a 5 5 0 0 1 5 -5 a 5 5 0 0 1 5 5 a 5 5 0 0 1 -5 5 a 5 5 0 0 1 -5 -5 m 10 0 h 5"/>
<g class="choice">
<path d=" M 35 1821 h 24 m 44 0 h 48"/>
<g class="terminal">
<rect height="22" rx="10" ry="10" width="44" x="59" y="1810"/>
<text x="81" y="1826">
&quot; &quot;</text>
</g>
<path d=" M 35 1821 a 12 12 0 0 1 12 12 v 9 m 92 0 v -9 a 12 12 0 0 1 12 -12"/>
<path d=" M 47 1842 v 33 m 92 0 v -33"/>
<path d=" M 47 1875 v 33 m 92 0 v -33"/>
<path d=" M 47 1842 v 0 a 12 12 0 0 0 12 12 m 52 0 h 16 a 12 12 0 0 0 12 -12 v 0"/>
<g class="terminal">
<rect height="22" rx="10" ry="10" width="52" x="59" y="1843"/>
<text x="85" y="1859">
&quot;\t&quot;</text>
</g>
<path d=" M 47 1875 v 0 a 12 12 0 0 0 12 12 m 52 0 h 16 a 12 12 0 0 0 12 -12 v 0"/>
<g class="terminal">
<rect height="22" rx="10" ry="10" width="52" x="59" y="1876"/>
<text x="85" y="1892">
&quot;\n&quot;</text>
</g>
<path d=" M 47 1908 v 0 a 12 12 0 0 0 12 12 m 68 0 h 0 a 12 12 0 0 0 12 -12 v 0"/>
<g class="terminal">
<rect height="22" rx="10" ry="10" width="68" x="59" y="1909"/>
<text x="93" y="1925">
&quot;\r\n&quot;</text>
</g>
</g>
<path d=" M 161 1821 h 5 a 5 5 0 0 1 5 -5 a 5 5 0 0 1 5 5 a 5 5 0 0 1 -5 5 a 5 5 0 0 1 -5 -5"/>
<path d=" M 25 1821 h 10"/>
<path d=" M 151 1821 h 10"/>
</g>
</g>
</g>
</svg>

