<svg class="railroad" viewBox="0 0 718 3889" xmlns="http://www.w3.org/2000/svg" xmlns:xlink="http://www.w3.org/1999/xlink">
<style type="text/css">
svg.railroad {
background-color: hsl(30, 20%, 95%);
background-size: 15px 15px;
background-image: linear-gradient(to right, rgba(30, 30, 30, .05) 1px, transparent 1px),
		  linear-gradient(to bottom, rgba(30, 30, 30, .05) 1px, transparent 1px);
}

svg.railroad rect.railroad_canvas {
stroke-width: 0px;
fill: none;
}

svg.railroad path {
stroke-width: 3px;
stroke: black;
fill: none;
}

svg.railroad .debug {
stroke-width: 1px;
stroke: red;
}

svg.railroad text {
font: 14px monospace;
text-anchor: middle;
}

svg.railroad .nonterminal text {
font-weight: bold;
}

svg.railroad text.comment {
font: italic 12px monospace;
}

svg.railroad rect {
stroke-width: 3px;
stroke: black;
fill:hsl(-290, 70%, 90%);
}

svg.railroad g.labeledbox > rect {
stroke-width: 1px;
stroke: grey;
stroke-dasharray: 5px;
fill:rgba(90, 90, 150, .1);
}
</style>
<rect class="railroad_canvas" height="100%" width="100%"/>
<g class="verticalgrid">
<g class="verticalgrid">
<text class="comment" x="39" y="25">
grammar</text>
<g class="sequence">
<path d=" M 10 53 a 5 5 0 0 1 5 -5 a 5 5 0 0 1 5 5 a 5 5 0 0 1 -5 5 a 5 5 0 0 1 -5 -5 m 10 0 h 5"/>
<g class="sequence">
<g class="nonterminal">
<rect height="22" width="44" x="35" y="42"/>
<text x="57" y="58">
SOI</text>
</g>
<g class="choice">
<path d=" M 89 53 h 24 m 0 0 h 140 m -67 0 l -5 -5 m 0 10 l 5 -5 m 67 0"/>
<g/>
<path d=" M 89 53 a 12 12 0 0 1 12 12 v 0 m 140 0 v 0 a 12 12 0 0 1 12 -12"/>
<path d=" M 101 65 v 0 a 12 12 0 0 0 12 12 m 116 0 h 0 a 12 12 0 0 0 12 -12 v 0"/>
<g class="repeat">
<path d=" M 113 77 h 12 m 92 0 h 12 m -12 0 a 12 12 0 0 1 12 12 v 0 a 12 12 0 0 1 -12 12 m 0 0 h -92 m 49 0 l 5 -5 m 0 10 l -5 -5 m -49 0 a 12 12 0 0 1 -12 -12 v 0 a 12 12 0 0 1 12 -12"/>
<g/>
<g class="nonterminal">
<rect height="22" width="92" x="125" y="66"/>
<text x="171" y="82">
func_decl</text>
</g>
</g>
</g>
<g class="nonterminal">
<rect height="22" width="44" x="263" y="42"/>
<text x="285" y="58">
EOI</text>
</g>
<path d=" M 79 53 h 10"/>
<path d=" M 253 53 h 10"/>
</g>
<path d=" M 317 53 h 5 a 5 5 0 0 1 5 -5 a 5 5 0 0 1 5 5 a 5 5 0 0 1 -5 5 a 5 5 0 0 1 -5 -5"/>
<path d=" M 25 53 h 10"/>
<path d=" M 307 53 h 10"/>
</g>
</g>
<g class="verticalgrid">
<text class="comment" x="46" y="128">
func_decl</text>
<g class="sequence">
<path d=" M 10 169 a 5 5 0 0 1 5 -5 a 5 5 0 0 1 5 5 a 5 5 0 0 1 -5 5 a 5 5 0 0 1 -5 -5 m 10 0 h 5"/>
<g class="sequence">
<g class="nonterminal">
<rect height="22" width="52" x="35" y="158"/>
<text x="61" y="174">
FUNC</text>
</g>
<g class="nonterminal">
<rect height="22" width="60" x="97" y="158"/>
<text x="127" y="174">
IDENT</text>
</g>
<g class="nonterminal">
<rect height="22" width="76" x="167" y="158"/>
<text x="205" y="174">
L_PAREN</text>
</g>
<g class="optional">
<path d=" M 253 169 h 24 m -24 0 a 12 12 0 0 0 12 -12 v 0 a 12 12 0 0 1 12 -12 h 92 m -43 0 l -5 -5 m 0 10 l 5 -5 m 43 0 a 12 12 0 0 1 12 12 v 0 a 12 12 0 0 0 12 12 h -24"/>
<g class="nonterminal">
<rect height="22" width="92" x="277" y="158"/>
<text x="323" y="174">
func_args</text>
</g>
</g>
<g class="nonterminal">
<rect height="22" width="76" x="403" y="158"/>
<text x="441" y="174">
R_PAREN</text>
</g>
<g class="nonterminal">
<rect height="22" width="92" x="489" y="158"/>
<text x="535" y="174">
func_tail</text>
</g>
<path d=" M 87 169 h 10"/>
<path d=" M 157 169 h 10"/>
<path d=" M 243 169 h 10"/>
<path d=" M 393 169 h 10"/>
<path d=" M 479 169 h 10"/>
</g>
<path d=" M 591 169 h 5 a 5 5 0 0 1 5 -5 a 5 5 0 0 1 5 5 a 5 5 0 0 1 -5 5 a 5 5 0 0 1 -5 -5"/>
<path d=" M 25 169 h 10"/>
<path d=" M 581 169 h 10"/>
</g>
</g>
<g class="verticalgrid">
<text class="comment" x="46" y="207">
func_args</text>
<g class="sequence">
<path d=" M 10 248 a 5 5 0 0 1 5 -5 a 5 5 0 0 1 5 5 a 5 5 0 0 1 -5 5 a 5 5 0 0 1 -5 -5 m 10 0 h 5"/>
<g class="sequence">
<g class="nonterminal">
<rect height="22" width="84" x="35" y="237"/>
<text x="77" y="253">
func_arg</text>
</g>
<g class="choice">
<path d=" M 129 248 h 24 m 0 0 h 202 m -98 0 l -5 -5 m 0 10 l 5 -5 m 98 0"/>
<g/>
<path d=" M 129 248 a 12 12 0 0 1 12 12 v 0 m 202 0 v 0 a 12 12 0 0 1 12 -12"/>
<path d=" M 141 260 v 0 a 12 12 0 0 0 12 12 m 178 0 h 0 a 12 12 0 0 0 12 -12 v 0"/>
<g class="repeat">
<path d=" M 153 272 h 12 m 154 0 h 12 m -12 0 a 12 12 0 0 1 12 12 v 0 a 12 12 0 0 1 -12 12 m 0 0 h -154 m 80 0 l 5 -5 m 0 10 l -5 -5 m -80 0 a 12 12 0 0 1 -12 -12 v 0 a 12 12 0 0 1 12 -12"/>
<g/>
<g class="sequence">
<g class="nonterminal">
<rect height="22" width="60" x="165" y="261"/>
<text x="195" y="277">
COMMA</text>
</g>
<g class="nonterminal">
<rect height="22" width="84" x="235" y="261"/>
<text x="277" y="277">
func_arg</text>
</g>
<path d=" M 225 272 h 10"/>
</g>
</g>
</g>
<g class="optional">
<path d=" M 365 248 h 24 m -24 0 a 12 12 0 0 0 12 -12 v 0 a 12 12 0 0 1 12 -12 h 60 m -27 0 l -5 -5 m 0 10 l 5 -5 m 27 0 a 12 12 0 0 1 12 12 v 0 a 12 12 0 0 0 12 12 h -24"/>
<g class="nonterminal">
<rect height="22" width="60" x="389" y="237"/>
<text x="419" y="253">
COMMA</text>
</g>
</g>
<path d=" M 119 248 h 10"/>
<path d=" M 355 248 h 10"/>
</g>
<path d=" M 483 248 h 5 a 5 5 0 0 1 5 -5 a 5 5 0 0 1 5 5 a 5 5 0 0 1 -5 5 a 5 5 0 0 1 -5 -5"/>
<path d=" M 25 248 h 10"/>
<path d=" M 473 248 h 10"/>
</g>
</g>
<g class="verticalgrid">
<text class="comment" x="43" y="323">
func_arg</text>
<g class="sequence">
<path d=" M 10 364 a 5 5 0 0 1 5 -5 a 5 5 0 0 1 5 5 a 5 5 0 0 1 -5 5 a 5 5 0 0 1 -5 -5 m 10 0 h 5"/>
<g class="sequence">
<g class="nonterminal">
<rect height="22" width="60" x="35" y="353"/>
<text x="65" y="369">
IDENT</text>
</g>
<g class="choice">
<path d=" M 105 364 h 24 m 0 0 h 178 m -86 0 l -5 -5 m 0 10 l 5 -5 m 86 0"/>
<g/>
<path d=" M 105 364 a 12 12 0 0 1 12 12 v 0 m 178 0 v 0 a 12 12 0 0 1 12 -12"/>
<path d=" M 117 376 v 0 a 12 12 0 0 0 12 12 m 154 0 h 0 a 12 12 0 0 0 12 -12 v 0"/>
<g class="repeat">
<path d=" M 129 388 h 12 m 130 0 h 12 m -12 0 a 12 12 0 0 1 12 12 v 0 a 12 12 0 0 1 -12 12 m 0 0 h -130 m 68 0 l 5 -5 m 0 10 l -5 -5 m -68 0 a 12 12 0 0 1 -12 -12 v 0 a 12 12 0 0 1 12 -12"/>
<g/>
<g class="sequence">
<g class="nonterminal">
<rect height="22" width="60" x="141" y="377"/>
<text x="171" y="393">
COMMA</text>
</g>
<g class="nonterminal">
<rect height="22" width="60" x="211" y="377"/>
<text x="241" y="393">
IDENT</text>
</g>
<path d=" M 201 388 h 10"/>
</g>
</g>
</g>
<g class="nonterminal">
<rect height="22" width="60" x="317" y="353"/>
<text x="347" y="369">
COLON</text>
</g>
<g class="nonterminal">
<rect height="22" width="52" x="387" y="353"/>
<text x="413" y="369">
type</text>
</g>
<g class="optional">
<path d=" M 449 364 h 24 m -24 0 a 12 12 0 0 0 12 -12 v 0 a 12 12 0 0 1 12 -12 h 186 m -90 0 l -5 -5 m 0 10 l 5 -5 m 90 0 a 12 12 0 0 1 12 12 v 0 a 12 12 0 0 0 12 12 h -24"/>
<g class="sequence">
<g class="nonterminal">
<rect height="22" width="68" x="473" y="353"/>
<text x="507" y="369">
ASSIGN</text>
</g>
<g class="nonterminal">
<rect height="22" width="108" x="551" y="353"/>
<text x="605" y="369">
simple_expr</text>
</g>
<path d=" M 541 364 h 10"/>
</g>
</g>
<path d=" M 95 364 h 10"/>
<path d=" M 307 364 h 10"/>
<path d=" M 377 364 h 10"/>
<path d=" M 439 364 h 10"/>
</g>
<path d=" M 693 364 h 5 a 5 5 0 0 1 5 -5 a 5 5 0 0 1 5 5 a 5 5 0 0 1 -5 5 a 5 5 0 0 1 -5 -5"/>
<path d=" M 25 364 h 10"/>
<path d=" M 683 364 h 10"/>
</g>
</g>
<g class="verticalgrid">
<text class="comment" x="46" y="439">
func_tail</text>
<g class="sequence">
<path d=" M 10 467 a 5 5 0 0 1 5 -5 a 5 5 0 0 1 5 5 a 5 5 0 0 1 -5 5 a 5 5 0 0 1 -5 -5 m 10 0 h 5"/>
<g class="choice">
<path d=" M 35 467 h 24 m 100 0 h 32"/>
<g class="nonterminal">
<rect height="22" width="100" x="59" y="456"/>
<text x="109" y="472">
func_arrow</text>
</g>
<path d=" M 35 467 a 12 12 0 0 1 12 12 v 9 m 132 0 v -9 a 12 12 0 0 1 12 -12"/>
<path d=" M 47 488 v 33 m 132 0 v -33"/>
<path d=" M 47 488 v 0 a 12 12 0 0 0 12 12 m 100 0 h 8 a 12 12 0 0 0 12 -12 v 0"/>
<g class="nonterminal">
<rect height="22" width="100" x="59" y="489"/>
<text x="109" y="505">
last_block</text>
</g>
<path d=" M 47 521 v 0 a 12 12 0 0 0 12 12 m 108 0 h 0 a 12 12 0 0 0 12 -12 v 0"/>
<g class="nonterminal">
<rect height="22" width="108" x="59" y="522"/>
<text x="113" y="538">
simple_expr</text>
</g>
</g>
<path d=" M 201 467 h 5 a 5 5 0 0 1 5 -5 a 5 5 0 0 1 5 5 a 5 5 0 0 1 -5 5 a 5 5 0 0 1 -5 -5"/>
<path d=" M 25 467 h 10"/>
<path d=" M 191 467 h 10"/>
</g>
</g>
<g class="verticalgrid">
<text class="comment" x="50" y="571">
func_arrow</text>
<g class="sequence">
<path d=" M 10 635 a 5 5 0 0 1 5 -5 a 5 5 0 0 1 5 5 a 5 5 0 0 1 -5 5 a 5 5 0 0 1 -5 -5 m 10 0 h 5"/>
<g class="sequence">
<g class="nonterminal">
<rect height="22" width="76" x="35" y="624"/>
<text x="73" y="640">
R_ARROW</text>
</g>
<g class="choice">
<path d=" M 121 635 h 24 m 352 0 h 24"/>
<g class="sequence">
<g class="labeledbox">
<rect height="66" width="180" x="145" y="588"/>
<path d=" M 145 635 h 8 m 122 0 h 50"/>
<text class="comment" x="235" y="611">
Lookahead: Must match</text>
<g class="sequence">
<g class="nonterminal">
<rect height="22" width="52" x="153" y="624"/>
<text x="179" y="640">
type</text>
</g>
<g class="nonterminal">
<rect height="22" width="60" x="215" y="624"/>
<text x="245" y="640">
COLON</text>
</g>
<path d=" M 205 635 h 10"/>
</g>
</g>
<g class="nonterminal">
<rect height="22" width="52" x="335" y="624"/>
<text x="361" y="640">
type</text>
</g>
<g class="nonterminal">
<rect height="22" width="100" x="397" y="624"/>
<text x="447" y="640">
last_block</text>
</g>
<path d=" M 325 635 h 10"/>
<path d=" M 387 635 h 10"/>
</g>
<path d=" M 121 635 a 12 12 0 0 1 12 12 v 17 m 376 0 v -17 a 12 12 0 0 1 12 -12"/>
<path d=" M 133 664 v 0 a 12 12 0 0 0 12 12 m 108 0 h 244 m -119 0 l -5 -5 m 0 10 l 5 -5 m 119 0 a 12 12 0 0 0 12 -12 v 0"/>
<g class="nonterminal">
<rect height="22" width="108" x="145" y="665"/>
<text x="199" y="681">
simple_expr</text>
</g>
</g>
<path d=" M 111 635 h 10"/>
</g>
<path d=" M 531 635 h 5 a 5 5 0 0 1 5 -5 a 5 5 0 0 1 5 5 a 5 5 0 0 1 -5 5 a 5 5 0 0 1 -5 -5"/>
<path d=" M 25 635 h 10"/>
<path d=" M 521 635 h 10"/>
</g>
</g>
<g class="verticalgrid">
<text class="comment" x="29" y="714">
type</text>
<g class="sequence">
<path d=" M 10 742 a 5 5 0 0 1 5 -5 a 5 5 0 0 1 5 5 a 5 5 0 0 1 -5 5 a 5 5 0 0 1 -5 -5 m 10 0 h 5"/>
<g class="nonterminal">
<rect height="22" width="60" x="35" y="731"/>
<text x="65" y="747">
IDENT</text>
</g>
<path d=" M 105 742 h 5 a 5 5 0 0 1 5 -5 a 5 5 0 0 1 5 5 a 5 5 0 0 1 -5 5 a 5 5 0 0 1 -5 -5"/>
<path d=" M 25 742 h 10"/>
<path d=" M 95 742 h 10"/>
</g>
</g>
<g class="verticalgrid">
<text class="comment" x="53" y="780">
simple_expr</text>
<g class="sequence">
<path d=" M 10 808 a 5 5 0 0 1 5 -5 a 5 5 0 0 1 5 5 a 5 5 0 0 1 -5 5 a 5 5 0 0 1 -5 -5 m 10 0 h 5"/>
<g class="choice">
<path d=" M 35 808 h 24 m 44 0 h 204 m -99 0 l -5 -5 m 0 10 l 5 -5 m 99 0"/>
<g class="terminal">
<rect height="22" rx="10" ry="10" width="44" x="59" y="797"/>
<text x="81" y="813">
&quot;1&quot;</text>
</g>
<path d=" M 35 808 a 12 12 0 0 1 12 12 v 9 m 248 0 v -9 a 12 12 0 0 1 12 -12"/>
<path d=" M 47 829 v 33 m 248 0 v -33"/>
<path d=" M 47 829 v 0 a 12 12 0 0 0 12 12 m 60 0 h 164 m -79 0 l -5 -5 m 0 10 l 5 -5 m 79 0 a 12 12 0 0 0 12 -12 v 0"/>
<g class="nonterminal">
<rect height="22" width="60" x="59" y="830"/>
<text x="89" y="846">
IDENT</text>
</g>
<path d=" M 47 862 v 0 a 12 12 0 0 0 12 12 m 224 0 h 0 a 12 12 0 0 0 12 -12 v 0"/>
<g class="sequence">
<g class="nonterminal">
<rect height="22" width="76" x="59" y="863"/>
<text x="97" y="879">
L_PAREN</text>
</g>
<g class="nonterminal">
<rect height="22" width="52" x="145" y="863"/>
<text x="171" y="879">
expr</text>
</g>
<g class="nonterminal">
<rect height="22" width="76" x="207" y="863"/>
<text x="245" y="879">
R_PAREN</text>
</g>
<path d=" M 135 874 h 10"/>
<path d=" M 197 874 h 10"/>
</g>
</g>
<path d=" M 317 808 h 5 a 5 5 0 0 1 5 -5 a 5 5 0 0 1 5 5 a 5 5 0 0 1 -5 5 a 5 5 0 0 1 -5 -5"/>
<path d=" M 25 808 h 10"/>
<path d=" M 307 808 h 10"/>
</g>
</g>
<g class="verticalgrid">
<text class="comment" x="29" y="912">
expr</text>
<g class="sequence">
<path d=" M 10 940 a 5 5 0 0 1 5 -5 a 5 5 0 0 1 5 5 a 5 5 0 0 1 -5 5 a 5 5 0 0 1 -5 -5 m 10 0 h 5"/>
<g class="choice">
<path d=" M 35 940 h 24 m 76 0 h 56 m -25 0 l -5 -5 m 0 10 l 5 -5 m 25 0"/>
<g class="nonterminal">
<rect height="22" width="76" x="59" y="929"/>
<text x="97" y="945">
if_expr</text>
</g>
<path d=" M 35 940 a 12 12 0 0 1 12 12 v 9 m 132 0 v -9 a 12 12 0 0 1 12 -12"/>
<path d=" M 47 961 v 0 a 12 12 0 0 0 12 12 m 108 0 h 0 a 12 12 0 0 0 12 -12 v 0"/>
<g class="nonterminal">
<rect height="22" width="108" x="59" y="962"/>
<text x="113" y="978">
simple_expr</text>
</g>
</g>
<path d=" M 201 940 h 5 a 5 5 0 0 1 5 -5 a 5 5 0 0 1 5 5 a 5 5 0 0 1 -5 5 a 5 5 0 0 1 -5 -5"/>
<path d=" M 25 940 h 10"/>
<path d=" M 191 940 h 10"/>
</g>
</g>
<g class="verticalgrid">
<text class="comment" x="113" y="1011">
expr_line (compound atomic)</text>
<g class="sequence">
<path d=" M 10 1039 a 5 5 0 0 1 5 -5 a 5 5 0 0 1 5 5 a 5 5 0 0 1 -5 5 a 5 5 0 0 1 -5 -5 m 10 0 h 5"/>
<g class="sequence">
<g class="nonterminal">
<rect height="22" width="52" x="35" y="1028"/>
<text x="61" y="1044">
expr</text>
</g>
<g class="choice">
<path d=" M 97 1039 h 24 m 0 0 h 140 m -67 0 l -5 -5 m 0 10 l 5 -5 m 67 0"/>
<g/>
<path d=" M 97 1039 a 12 12 0 0 1 12 12 v 0 m 140 0 v 0 a 12 12 0 0 1 12 -12"/>
<path d=" M 109 1051 v 0 a 12 12 0 0 0 12 12 m 116 0 h 0 a 12 12 0 0 0 12 -12 v 0"/>
<g class="repeat">
<path d=" M 121 1063 h 12 m 92 0 h 12 m -12 0 a 12 12 0 0 1 12 12 v 0 a 12 12 0 0 1 -12 12 m 0 0 h -92 m 49 0 l 5 -5 m 0 10 l -5 -5 m -49 0 a 12 12 0 0 1 -12 -12 v 0 a 12 12 0 0 1 12 -12"/>
<g/>
<g class="nonterminal">
<rect height="22" width="92" x="133" y="1052"/>
<text x="179" y="1068">
SPACE_TAB</text>
</g>
</g>
</g>
<g class="nonterminal">
<rect height="22" width="52" x="271" y="1028"/>
<text x="297" y="1044">
SEMI</text>
</g>
<path d=" M 87 1039 h 10"/>
<path d=" M 261 1039 h 10"/>
</g>
<path d=" M 333 1039 h 5 a 5 5 0 0 1 5 -5 a 5 5 0 0 1 5 5 a 5 5 0 0 1 -5 5 a 5 5 0 0 1 -5 -5"/>
<path d=" M 25 1039 h 10"/>
<path d=" M 323 1039 h 10"/>
</g>
</g>
<g class="verticalgrid">
<text class="comment" x="53" y="1114">
block_start</text>
<g class="sequence">
<path d=" M 10 1142 a 5 5 0 0 1 5 -5 a 5 5 0 0 1 5 5 a 5 5 0 0 1 -5 5 a 5 5 0 0 1 -5 -5 m 10 0 h 5"/>
<g class="sequence">
<g class="nonterminal">
<rect height="22" width="60" x="35" y="1131"/>
<text x="65" y="1147">
COLON</text>
</g>
<g class="nonterminal">
<rect height="22" width="92" x="105" y="1131"/>
<text x="151" y="1147">
expr_line</text>
</g>
<path d=" M 95 1142 h 10"/>
</g>
<path d=" M 207 1142 h 5 a 5 5 0 0 1 5 -5 a 5 5 0 0 1 5 5 a 5 5 0 0 1 -5 5 a 5 5 0 0 1 -5 -5"/>
<path d=" M 25 1142 h 10"/>
<path d=" M 197 1142 h 10"/>
</g>
</g>
<g class="verticalgrid">
<text class="comment" x="50" y="1180">
last_block</text>
<g class="sequence">
<path d=" M 10 1208 a 5 5 0 0 1 5 -5 a 5 5 0 0 1 5 5 a 5 5 0 0 1 -5 5 a 5 5 0 0 1 -5 -5 m 10 0 h 5"/>
<g class="sequence">
<g class="nonterminal">
<rect height="22" width="108" x="35" y="1197"/>
<text x="89" y="1213">
block_start</text>
</g>
<g class="choice">
<path d=" M 153 1208 h 24 m 0 0 h 188 m -91 0 l -5 -5 m 0 10 l 5 -5 m 91 0"/>
<g/>
<path d=" M 153 1208 a 12 12 0 0 1 12 12 v 0 m 188 0 v 0 a 12 12 0 0 1 12 -12"/>
<path d=" M 165 1220 v 0 a 12 12 0 0 0 12 12 m 164 0 h 0 a 12 12 0 0 0 12 -12 v 0"/>
<g class="repeat">
<path d=" M 177 1232 h 12 m 140 0 h 12 m -12 0 a 12 12 0 0 1 12 12 v 0 a 12 12 0 0 1 -12 12 m 0 0 h -140 m 73 0 l 5 -5 m 0 10 l -5 -5 m -73 0 a 12 12 0 0 1 -12 -12 v 0 a 12 12 0 0 1 12 -12"/>
<g/>
<g class="nonterminal">
<rect height="22" width="140" x="189" y="1221"/>
<text x="259" y="1237">
last_block_expr</text>
</g>
</g>
</g>
<g class="nonterminal">
<rect height="22" width="44" x="375" y="1197"/>
<text x="397" y="1213">
END</text>
</g>
<path d=" M 143 1208 h 10"/>
<path d=" M 365 1208 h 10"/>
</g>
<path d=" M 429 1208 h 5 a 5 5 0 0 1 5 -5 a 5 5 0 0 1 5 5 a 5 5 0 0 1 -5 5 a 5 5 0 0 1 -5 -5"/>
<path d=" M 25 1208 h 10"/>
<path d=" M 419 1208 h 10"/>
</g>
</g>
<g class="verticalgrid">
<text class="comment" x="67" y="1283">
last_block_expr</text>
<g class="sequence">
<path d=" M 10 1347 a 5 5 0 0 1 5 -5 a 5 5 0 0 1 5 5 a 5 5 0 0 1 -5 5 a 5 5 0 0 1 -5 -5 m 10 0 h 5"/>
<g class="sequence">
<g class="labeledbox">
<rect height="66" width="187" x="35" y="1300"/>
<path d=" M 35 1347 h 8 m 44 0 h 135 m -64 0 l -5 -5 m 0 10 l 5 -5 m 64 0"/>
<text class="comment" x="128" y="1323">
Lookahead: Can&#x27;t match</text>
<g class="nonterminal">
<rect height="22" width="44" x="43" y="1336"/>
<text x="65" y="1352">
END</text>
</g>
</g>
<g class="nonterminal">
<rect height="22" width="92" x="232" y="1336"/>
<text x="278" y="1352">
expr_line</text>
</g>
<path d=" M 222 1347 h 10"/>
</g>
<path d=" M 334 1347 h 5 a 5 5 0 0 1 5 -5 a 5 5 0 0 1 5 5 a 5 5 0 0 1 -5 5 a 5 5 0 0 1 -5 -5"/>
<path d=" M 25 1347 h 10"/>
<path d=" M 324 1347 h 10"/>
</g>
</g>
<g class="verticalgrid">
<text class="comment" x="71" y="1393">
maybe_last_block</text>
<g class="sequence">
<path d=" M 10 1421 a 5 5 0 0 1 5 -5 a 5 5 0 0 1 5 5 a 5 5 0 0 1 -5 5 a 5 5 0 0 1 -5 -5 m 10 0 h 5"/>
<g class="sequence">
<g class="nonterminal">
<rect height="22" width="108" x="35" y="1410"/>
<text x="89" y="1426">
block_start</text>
</g>
<g class="choice">
<path d=" M 153 1421 h 24 m 0 0 h 244 m -119 0 l -5 -5 m 0 10 l 5 -5 m 119 0"/>
<g/>
<path d=" M 153 1421 a 12 12 0 0 1 12 12 v 0 m 244 0 v 0 a 12 12 0 0 1 12 -12"/>
<path d=" M 165 1433 v 0 a 12 12 0 0 0 12 12 m 220 0 h 0 a 12 12 0 0 0 12 -12 v 0"/>
<g class="repeat">
<path d=" M 177 1445 h 12 m 196 0 h 12 m -12 0 a 12 12 0 0 1 12 12 v 0 a 12 12 0 0 1 -12 12 m 0 0 h -196 m 101 0 l 5 -5 m 0 10 l -5 -5 m -101 0 a 12 12 0 0 1 -12 -12 v 0 a 12 12 0 0 1 12 -12"/>
<g/>
<g class="nonterminal">
<rect height="22" width="196" x="189" y="1434"/>
<text x="287" y="1450">
maybe_last_block_expr</text>
</g>
</g>
</g>
<g class="choice">
<path d=" M 431 1421 h 24 m 44 0 h 32"/>
<g class="nonterminal">
<rect height="22" width="44" x="455" y="1410"/>
<text x="477" y="1426">
END</text>
</g>
<path d=" M 431 1421 a 12 12 0 0 1 12 12 v 9 m 76 0 v -9 a 12 12 0 0 1 12 -12"/>
<path d=" M 443 1442 v 0 a 12 12 0 0 0 12 12 m 52 0 h 0 a 12 12 0 0 0 12 -12 v 0"/>
<g class="nonterminal">
<rect height="22" width="52" x="455" y="1443"/>
<text x="481" y="1459">
ELSE</text>
</g>
</g>
<path d=" M 143 1421 h 10"/>
<path d=" M 421 1421 h 10"/>
</g>
<path d=" M 541 1421 h 5 a 5 5 0 0 1 5 -5 a 5 5 0 0 1 5 5 a 5 5 0 0 1 -5 5 a 5 5 0 0 1 -5 -5"/>
<path d=" M 25 1421 h 10"/>
<path d=" M 531 1421 h 10"/>
</g>
</g>
<g class="verticalgrid">
<text class="comment" x="92" y="1496">
maybe_last_block_expr</text>
<g class="sequence">
<path d=" M 10 1560 a 5 5 0 0 1 5 -5 a 5 5 0 0 1 5 5 a 5 5 0 0 1 -5 5 a 5 5 0 0 1 -5 -5 m 10 0 h 5"/>
<g class="sequence">
<g class="labeledbox">
<rect height="99" width="187" x="35" y="1513"/>
<path d=" M 35 1560 h 8 m 100 0 h 79 m -36 0 l -5 -5 m 0 10 l 5 -5 m 36 0"/>
<text class="comment" x="128" y="1536">
Lookahead: Can&#x27;t match</text>
<g class="choice">
<path d=" M 43 1560 h 24 m 44 0 h 32"/>
<g class="nonterminal">
<rect height="22" width="44" x="67" y="1549"/>
<text x="89" y="1565">
END</text>
</g>
<path d=" M 43 1560 a 12 12 0 0 1 12 12 v 9 m 76 0 v -9 a 12 12 0 0 1 12 -12"/>
<path d=" M 55 1581 v 0 a 12 12 0 0 0 12 12 m 52 0 h 0 a 12 12 0 0 0 12 -12 v 0"/>
<g class="nonterminal">
<rect height="22" width="52" x="67" y="1582"/>
<text x="93" y="1598">
ELSE</text>
</g>
</g>
</g>
<g class="nonterminal">
<rect height="22" width="92" x="232" y="1549"/>
<text x="278" y="1565">
expr_line</text>
</g>
<path d=" M 222 1560 h 10"/>
</g>
<path d=" M 334 1560 h 5 a 5 5 0 0 1 5 -5 a 5 5 0 0 1 5 5 a 5 5 0 0 1 -5 5 a 5 5 0 0 1 -5 -5"/>
<path d=" M 25 1560 h 10"/>
<path d=" M 324 1560 h 10"/>
</g>
</g>
<g class="verticalgrid">
<text class="comment" x="39" y="1639">
if_expr</text>
<g class="sequence">
<path d=" M 10 1667 a 5 5 0 0 1 5 -5 a 5 5 0 0 1 5 5 a 5 5 0 0 1 -5 5 a 5 5 0 0 1 -5 -5 m 10 0 h 5"/>
<g class="sequence">
<g class="nonterminal">
<rect height="22" width="36" x="35" y="1656"/>
<text x="53" y="1672">
IF</text>
</g>
<g class="nonterminal">
<rect height="22" width="108" x="81" y="1656"/>
<text x="135" y="1672">
simple_expr</text>
</g>
<path d=" M 71 1667 h 10"/>
</g>
<path d=" M 199 1667 h 5 a 5 5 0 0 1 5 -5 a 5 5 0 0 1 5 5 a 5 5 0 0 1 -5 5 a 5 5 0 0 1 -5 -5"/>
<path d=" M 25 1667 h 10"/>
<path d=" M 189 1667 h 10"/>
</g>
</g>
<g class="verticalgrid">
<text class="comment" x="39" y="1705">
if_body</text>
<g class="sequence">
<path d=" M 10 1733 a 5 5 0 0 1 5 -5 a 5 5 0 0 1 5 5 a 5 5 0 0 1 -5 5 a 5 5 0 0 1 -5 -5 m 10 0 h 5"/>
<g class="choice">
<path d=" M 35 1733 h 24 m 124 0 h 32"/>
<g class="nonterminal">
<rect height="22" width="124" x="59" y="1722"/>
<text x="121" y="1738">
if_block_body</text>
</g>
<path d=" M 35 1733 a 12 12 0 0 1 12 12 v 9 m 156 0 v -9 a 12 12 0 0 1 12 -12"/>
<path d=" M 47 1754 v 0 a 12 12 0 0 0 12 12 m 132 0 h 0 a 12 12 0 0 0 12 -12 v 0"/>
<g class="nonterminal">
<rect height="22" width="132" x="59" y="1755"/>
<text x="125" y="1771">
if_simple_body</text>
</g>
</g>
<path d=" M 225 1733 h 5 a 5 5 0 0 1 5 -5 a 5 5 0 0 1 5 5 a 5 5 0 0 1 -5 5 a 5 5 0 0 1 -5 -5"/>
<path d=" M 25 1733 h 10"/>
<path d=" M 215 1733 h 10"/>
</g>
</g>
<g class="verticalgrid">
<text class="comment" x="60" y="1804">
if_block_body</text>
<g class="sequence">
<path d=" M 10 1832 a 5 5 0 0 1 5 -5 a 5 5 0 0 1 5 5 a 5 5 0 0 1 -5 5 a 5 5 0 0 1 -5 -5 m 10 0 h 5"/>
<g class="sequence">
<g class="nonterminal">
<rect height="22" width="108" x="35" y="1821"/>
<text x="89" y="1837">
block_start</text>
</g>
<g class="choice">
<path d=" M 153 1832 h 24 m 0 0 h 244 m -119 0 l -5 -5 m 0 10 l 5 -5 m 119 0"/>
<g/>
<path d=" M 153 1832 a 12 12 0 0 1 12 12 v 0 m 244 0 v 0 a 12 12 0 0 1 12 -12"/>
<path d=" M 165 1844 v 0 a 12 12 0 0 0 12 12 m 220 0 h 0 a 12 12 0 0 0 12 -12 v 0"/>
<g class="repeat">
<path d=" M 177 1856 h 12 m 196 0 h 12 m -12 0 a 12 12 0 0 1 12 12 v 0 a 12 12 0 0 1 -12 12 m 0 0 h -196 m 101 0 l 5 -5 m 0 10 l -5 -5 m -101 0 a 12 12 0 0 1 -12 -12 v 0 a 12 12 0 0 1 12 -12"/>
<g/>
<g class="nonterminal">
<rect height="22" width="196" x="189" y="1845"/>
<text x="287" y="1861">
maybe_last_block_expr</text>
</g>
</g>
</g>
<g class="choice">
<path d=" M 431 1832 h 24 m 44 0 h 32"/>
<g class="nonterminal">
<rect height="22" width="44" x="455" y="1821"/>
<text x="477" y="1837">
END</text>
</g>
<path d=" M 431 1832 a 12 12 0 0 1 12 12 v 9 m 76 0 v -9 a 12 12 0 0 1 12 -12"/>
<path d=" M 443 1853 v 0 a 12 12 0 0 0 12 12 m 52 0 h 0 a 12 12 0 0 0 12 -12 v 0"/>
<g class="nonterminal">
<rect height="22" width="52" x="455" y="1854"/>
<text x="481" y="1870">
else</text>
</g>
</g>
<path d=" M 143 1832 h 10"/>
<path d=" M 421 1832 h 10"/>
</g>
<path d=" M 541 1832 h 5 a 5 5 0 0 1 5 -5 a 5 5 0 0 1 5 5 a 5 5 0 0 1 -5 5 a 5 5 0 0 1 -5 -5"/>
<path d=" M 25 1832 h 10"/>
<path d=" M 531 1832 h 10"/>
</g>
</g>
<g class="verticalgrid">
<text class="comment" x="64" y="1907">
if_simple_body</text>
<g class="sequence">
<path d=" M 10 1948 a 5 5 0 0 1 5 -5 a 5 5 0 0 1 5 5 a 5 5 0 0 1 -5 5 a 5 5 0 0 1 -5 -5 m 10 0 h 5"/>
<g class="sequence">
<g class="choice">
<path d=" M 35 1948 h 24 m 76 0 h 56 m -25 0 l -5 -5 m 0 10 l 5 -5 m 25 0"/>
<g class="nonterminal">
<rect height="22" width="76" x="59" y="1937"/>
<text x="97" y="1953">
if_expr</text>
</g>
<path d=" M 35 1948 a 12 12 0 0 1 12 12 v 9 m 132 0 v -9 a 12 12 0 0 1 12 -12"/>
<path d=" M 47 1969 v 0 a 12 12 0 0 0 12 12 m 108 0 h 0 a 12 12 0 0 0 12 -12 v 0"/>
<g class="nonterminal">
<rect height="22" width="108" x="59" y="1970"/>
<text x="113" y="1986">
simple_expr</text>
</g>
</g>
<g class="optional">
<path d=" M 201 1948 h 24 m -24 0 a 12 12 0 0 0 12 -12 v 0 a 12 12 0 0 1 12 -12 h 52 m -23 0 l -5 -5 m 0 10 l 5 -5 m 23 0 a 12 12 0 0 1 12 12 v 0 a 12 12 0 0 0 12 12 h -24"/>
<g class="nonterminal">
<rect height="22" width="52" x="225" y="1937"/>
<text x="251" y="1953">
else</text>
</g>
</g>
<path d=" M 191 1948 h 10"/>
</g>
<path d=" M 311 1948 h 5 a 5 5 0 0 1 5 -5 a 5 5 0 0 1 5 5 a 5 5 0 0 1 -5 5 a 5 5 0 0 1 -5 -5"/>
<path d=" M 25 1948 h 10"/>
<path d=" M 301 1948 h 10"/>
</g>
</g>
<g class="verticalgrid">
<text class="comment" x="29" y="2019">
else</text>
<g class="sequence">
<path d=" M 10 2047 a 5 5 0 0 1 5 -5 a 5 5 0 0 1 5 5 a 5 5 0 0 1 -5 5 a 5 5 0 0 1 -5 -5 m 10 0 h 5"/>
<g class="sequence">
<g class="nonterminal">
<rect height="22" width="52" x="35" y="2036"/>
<text x="61" y="2052">
ELSE</text>
</g>
<g class="nonterminal">
<rect height="22" width="76" x="97" y="2036"/>
<text x="135" y="2052">
if_body</text>
</g>
<path d=" M 87 2047 h 10"/>
</g>
<path d=" M 183 2047 h 5 a 5 5 0 0 1 5 -5 a 5 5 0 0 1 5 5 a 5 5 0 0 1 -5 5 a 5 5 0 0 1 -5 -5"/>
<path d=" M 25 2047 h 10"/>
<path d=" M 173 2047 h 10"/>
</g>
</g>
<g class="verticalgrid">
<text class="comment" x="64" y="2085">
IDENT (atomic)</text>
<g class="sequence">
<path d=" M 10 2113 a 5 5 0 0 1 5 -5 a 5 5 0 0 1 5 5 a 5 5 0 0 1 -5 5 a 5 5 0 0 1 -5 -5 m 10 0 h 5"/>
<g class="sequence">
<g class="choice">
<path d=" M 35 2113 h 24 m 100 0 h 32"/>
<g class="nonterminal">
<rect height="22" width="100" x="59" y="2102"/>
<text x="109" y="2118">
UNDERSCORE</text>
</g>
<path d=" M 35 2113 a 12 12 0 0 1 12 12 v 9 m 132 0 v -9 a 12 12 0 0 1 12 -12"/>
<path d=" M 47 2134 v 0 a 12 12 0 0 0 12 12 m 108 0 h 0 a 12 12 0 0 0 12 -12 v 0"/>
<g class="nonterminal">
<rect height="22" width="108" x="59" y="2135"/>
<text x="113" y="2151">
ASCII_ALPHA</text>
</g>
</g>
<g class="choice">
<path d=" M 201 2113 h 24 m 0 0 h 204 m -99 0 l -5 -5 m 0 10 l 5 -5 m 99 0"/>
<g/>
<path d=" M 201 2113 a 12 12 0 0 1 12 12 v 0 m 204 0 v 0 a 12 12 0 0 1 12 -12"/>
<path d=" M 213 2125 v 0 a 12 12 0 0 0 12 12 m 180 0 h 0 a 12 12 0 0 0 12 -12 v 0"/>
<g class="repeat">
<path d=" M 225 2137 h 12 m 156 0 h 12 m -12 0 a 12 12 0 0 1 12 12 v 63 m 0 -28 l -5 -5 m 10 0 l -5 5 m 0 28 a 12 12 0 0 1 -12 12 m 0 0 h -156 m 81 0 l 5 -5 m 0 10 l -5 -5 m -81 0 a 12 12 0 0 1 -12 -12 v -63 m 0 34 l -5 5 m 10 0 l -5 -5 m 0 -34 a 12 12 0 0 1 12 -12"/>
<g/>
<g class="choice">
<path d=" M 237 2137 h 24 m 100 0 h 32"/>
<g class="nonterminal">
<rect height="22" width="100" x="261" y="2126"/>
<text x="311" y="2142">
UNDERSCORE</text>
</g>
<path d=" M 237 2137 a 12 12 0 0 1 12 12 v 9 m 132 0 v -9 a 12 12 0 0 1 12 -12"/>
<path d=" M 249 2158 v 33 m 132 0 v -33"/>
<path d=" M 249 2158 v 0 a 12 12 0 0 0 12 12 m 108 0 h 0 a 12 12 0 0 0 12 -12 v 0"/>
<g class="nonterminal">
<rect height="22" width="108" x="261" y="2159"/>
<text x="315" y="2175">
ASCII_ALPHA</text>
</g>
<path d=" M 249 2191 v 0 a 12 12 0 0 0 12 12 m 108 0 h 0 a 12 12 0 0 0 12 -12 v 0"/>
<g class="nonterminal">
<rect height="22" width="108" x="261" y="2192"/>
<text x="315" y="2208">
ASCII_DIGIT</text>
</g>
</g>
</g>
</g>
<path d=" M 191 2113 h 10"/>
</g>
<path d=" M 439 2113 h 5 a 5 5 0 0 1 5 -5 a 5 5 0 0 1 5 5 a 5 5 0 0 1 -5 5 a 5 5 0 0 1 -5 -5"/>
<path d=" M 25 2113 h 10"/>
<path d=" M 429 2113 h 10"/>
</g>
</g>
<g class="verticalgrid">
<text class="comment" x="81" y="2251">
UNDERSCORE (atomic)</text>
<g class="sequence">
<path d=" M 10 2279 a 5 5 0 0 1 5 -5 a 5 5 0 0 1 5 5 a 5 5 0 0 1 -5 5 a 5 5 0 0 1 -5 -5 m 10 0 h 5"/>
<g class="terminal">
<rect height="22" rx="10" ry="10" width="44" x="35" y="2268"/>
<text x="57" y="2284">
&quot;_&quot;</text>
</g>
<path d=" M 89 2279 h 5 a 5 5 0 0 1 5 -5 a 5 5 0 0 1 5 5 a 5 5 0 0 1 -5 5 a 5 5 0 0 1 -5 -5"/>
<path d=" M 25 2279 h 10"/>
<path d=" M 79 2279 h 10"/>
</g>
</g>
<g class="verticalgrid">
<text class="comment" x="71" y="2317">
L_PAREN (atomic)</text>
<g class="sequence">
<path d=" M 10 2345 a 5 5 0 0 1 5 -5 a 5 5 0 0 1 5 5 a 5 5 0 0 1 -5 5 a 5 5 0 0 1 -5 -5 m 10 0 h 5"/>
<g class="terminal">
<rect height="22" rx="10" ry="10" width="44" x="35" y="2334"/>
<text x="57" y="2350">
&quot;(&quot;</text>
</g>
<path d=" M 89 2345 h 5 a 5 5 0 0 1 5 -5 a 5 5 0 0 1 5 5 a 5 5 0 0 1 -5 5 a 5 5 0 0 1 -5 -5"/>
<path d=" M 25 2345 h 10"/>
<path d=" M 79 2345 h 10"/>
</g>
</g>
<g class="verticalgrid">
<text class="comment" x="71" y="2383">
R_PAREN (atomic)</text>
<g class="sequence">
<path d=" M 10 2411 a 5 5 0 0 1 5 -5 a 5 5 0 0 1 5 5 a 5 5 0 0 1 -5 5 a 5 5 0 0 1 -5 -5 m 10 0 h 5"/>
<g class="terminal">
<rect height="22" rx="10" ry="10" width="44" x="35" y="2400"/>
<text x="57" y="2416">
&quot;)&quot;</text>
</g>
<path d=" M 89 2411 h 5 a 5 5 0 0 1 5 -5 a 5 5 0 0 1 5 5 a 5 5 0 0 1 -5 5 a 5 5 0 0 1 -5 -5"/>
<path d=" M 25 2411 h 10"/>
<path d=" M 79 2411 h 10"/>
</g>
</g>
<g class="verticalgrid">
<text class="comment" x="64" y="2449">
COLON (atomic)</text>
<g class="sequence">
<path d=" M 10 2477 a 5 5 0 0 1 5 -5 a 5 5 0 0 1 5 5 a 5 5 0 0 1 -5 5 a 5 5 0 0 1 -5 -5 m 10 0 h 5"/>
<g class="terminal">
<rect height="22" rx="10" ry="10" width="44" x="35" y="2466"/>
<text x="57" y="2482">
&quot;:&quot;</text>
</g>
<path d=" M 89 2477 h 5 a 5 5 0 0 1 5 -5 a 5 5 0 0 1 5 5 a 5 5 0 0 1 -5 5 a 5 5 0 0 1 -5 -5"/>
<path d=" M 25 2477 h 10"/>
<path d=" M 79 2477 h 10"/>
</g>
</g>
<g class="verticalgrid">
<text class="comment" x="64" y="2515">
COMMA (atomic)</text>
<g class="sequence">
<path d=" M 10 2543 a 5 5 0 0 1 5 -5 a 5 5 0 0 1 5 5 a 5 5 0 0 1 -5 5 a 5 5 0 0 1 -5 -5 m 10 0 h 5"/>
<g class="terminal">
<rect height="22" rx="10" ry="10" width="44" x="35" y="2532"/>
<text x="57" y="2548">
&quot;,&quot;</text>
</g>
<path d=" M 89 2543 h 5 a 5 5 0 0 1 5 -5 a 5 5 0 0 1 5 5 a 5 5 0 0 1 -5 5 a 5 5 0 0 1 -5 -5"/>
<path d=" M 25 2543 h 10"/>
<path d=" M 79 2543 h 10"/>
</g>
</g>
<g class="verticalgrid">
<text class="comment" x="67" y="2581">
ASSIGN (atomic)</text>
<g class="sequence">
<path d=" M 10 2609 a 5 5 0 0 1 5 -5 a 5 5 0 0 1 5 5 a 5 5 0 0 1 -5 5 a 5 5 0 0 1 -5 -5 m 10 0 h 5"/>
<g class="terminal">
<rect height="22" rx="10" ry="10" width="44" x="35" y="2598"/>
<text x="57" y="2614">
&quot;=&quot;</text>
</g>
<path d=" M 89 2609 h 5 a 5 5 0 0 1 5 -5 a 5 5 0 0 1 5 5 a 5 5 0 0 1 -5 5 a 5 5 0 0 1 -5 -5"/>
<path d=" M 25 2609 h 10"/>
<path d=" M 79 2609 h 10"/>
</g>
</g>
<g class="verticalgrid">
<text class="comment" x="71" y="2647">
R_ARROW (atomic)</text>
<g class="sequence">
<path d=" M 10 2675 a 5 5 0 0 1 5 -5 a 5 5 0 0 1 5 5 a 5 5 0 0 1 -5 5 a 5 5 0 0 1 -5 -5 m 10 0 h 5"/>
<g class="terminal">
<rect height="22" rx="10" ry="10" width="52" x="35" y="2664"/>
<text x="61" y="2680">
&quot;-&gt;&quot;</text>
</g>
<path d=" M 97 2675 h 5 a 5 5 0 0 1 5 -5 a 5 5 0 0 1 5 5 a 5 5 0 0 1 -5 5 a 5 5 0 0 1 -5 -5"/>
<path d=" M 25 2675 h 10"/>
<path d=" M 87 2675 h 10"/>
</g>
</g>
<g class="verticalgrid">
<text class="comment" x="81" y="2713">
MAYBE_SEMI (atomic)</text>
<g class="sequence">
<path d=" M 10 2754 a 5 5 0 0 1 5 -5 a 5 5 0 0 1 5 5 a 5 5 0 0 1 -5 5 a 5 5 0 0 1 -5 -5 m 10 0 h 5"/>
<g class="sequence">
<g class="nonterminal">
<rect height="22" width="52" x="35" y="2743"/>
<text x="61" y="2759">
CRLF</text>
</g>
<g class="choice">
<path d=" M 97 2754 h 24 m 0 0 h 148 m -71 0 l -5 -5 m 0 10 l 5 -5 m 71 0"/>
<g/>
<path d=" M 97 2754 a 12 12 0 0 1 12 12 v 0 m 148 0 v 0 a 12 12 0 0 1 12 -12"/>
<path d=" M 109 2766 v 0 a 12 12 0 0 0 12 12 m 124 0 h 0 a 12 12 0 0 0 12 -12 v 0"/>
<g class="repeat">
<path d=" M 121 2778 h 12 m 100 0 h 12 m -12 0 a 12 12 0 0 1 12 12 v 0 a 12 12 0 0 1 -12 12 m 0 0 h -100 m 53 0 l 5 -5 m 0 10 l -5 -5 m -53 0 a 12 12 0 0 1 -12 -12 v 0 a 12 12 0 0 1 12 -12"/>
<g/>
<g class="nonterminal">
<rect height="22" width="100" x="133" y="2767"/>
<text x="183" y="2783">
WHITESPACE</text>
</g>
</g>
</g>
<g class="optional">
<path d=" M 279 2754 h 24 m -24 0 a 12 12 0 0 0 12 -12 v 0 a 12 12 0 0 1 12 -12 h 44 a 12 12 0 0 1 12 12 v 0 a 12 12 0 0 0 12 12 h -24"/>
<g class="terminal">
<rect height="22" rx="10" ry="10" width="44" x="303" y="2743"/>
<text x="325" y="2759">
&quot;;&quot;</text>
</g>
</g>
<path d=" M 87 2754 h 10"/>
<path d=" M 269 2754 h 10"/>
</g>
<path d=" M 381 2754 h 5 a 5 5 0 0 1 5 -5 a 5 5 0 0 1 5 5 a 5 5 0 0 1 -5 5 a 5 5 0 0 1 -5 -5"/>
<path d=" M 25 2754 h 10"/>
<path d=" M 371 2754 h 10"/>
</g>
</g>
<g class="verticalgrid">
<text class="comment" x="60" y="2829">
SEMI (atomic)</text>
<g class="sequence">
<path d=" M 10 2857 a 5 5 0 0 1 5 -5 a 5 5 0 0 1 5 5 a 5 5 0 0 1 -5 5 a 5 5 0 0 1 -5 -5 m 10 0 h 5"/>
<g class="choice">
<path d=" M 35 2857 h 24 m 100 0 h 24"/>
<g class="nonterminal">
<rect height="22" width="100" x="59" y="2846"/>
<text x="109" y="2862">
MAYBE_SEMI</text>
</g>
<path d=" M 35 2857 a 12 12 0 0 1 12 12 v 9 m 124 0 v -9 a 12 12 0 0 1 12 -12"/>
<path d=" M 47 2878 v 0 a 12 12 0 0 0 12 12 m 44 0 h 56 m -25 0 l -5 -5 m 0 10 l 5 -5 m 25 0 a 12 12 0 0 0 12 -12 v 0"/>
<g class="terminal">
<rect height="22" rx="10" ry="10" width="44" x="59" y="2879"/>
<text x="81" y="2895">
&quot;;&quot;</text>
</g>
</g>
<path d=" M 193 2857 h 5 a 5 5 0 0 1 5 -5 a 5 5 0 0 1 5 5 a 5 5 0 0 1 -5 5 a 5 5 0 0 1 -5 -5"/>
<path d=" M 25 2857 h 10"/>
<path d=" M 183 2857 h 10"/>
</g>
</g>
<g class="verticalgrid">
<text class="comment" x="60" y="2928">
FUNC (atomic)</text>
<g class="sequence">
<path d=" M 10 2992 a 5 5 0 0 1 5 -5 a 5 5 0 0 1 5 5 a 5 5 0 0 1 -5 5 a 5 5 0 0 1 -5 -5 m 10 0 h 5"/>
<g class="sequence">
<g class="terminal">
<rect height="22" rx="10" ry="10" width="68" x="35" y="2981"/>
<text x="69" y="2997">
&quot;func&quot;</text>
</g>
<g class="labeledbox">
<rect height="79" width="180" x="113" y="2945"/>
<path d=" M 113 2992 h 8 m 124 0 h 48"/>
<text class="comment" x="203" y="2968">
Lookahead: Must match</text>
<g class="repeat">
<path d=" M 121 2992 h 12 m 100 0 h 12 m -12 0 a 12 12 0 0 1 12 12 v 0 a 12 12 0 0 1 -12 12 m 0 0 h -100 m 53 0 l 5 -5 m 0 10 l -5 -5 m -53 0 a 12 12 0 0 1 -12 -12 v 0 a 12 12 0 0 1 12 -12"/>
<g/>
<g class="nonterminal">
<rect height="22" width="100" x="133" y="2981"/>
<text x="183" y="2997">
WHITESPACE</text>
</g>
</g>
</g>
<path d=" M 103 2992 h 10"/>
</g>
<path d=" M 303 2992 h 5 a 5 5 0 0 1 5 -5 a 5 5 0 0 1 5 5 a 5 5 0 0 1 -5 5 a 5 5 0 0 1 -5 -5"/>
<path d=" M 25 2992 h 10"/>
<path d=" M 293 2992 h 10"/>
</g>
</g>
<g class="verticalgrid">
<text class="comment" x="53" y="3051">
IF (atomic)</text>
<g class="sequence">
<path d=" M 10 3115 a 5 5 0 0 1 5 -5 a 5 5 0 0 1 5 5 a 5 5 0 0 1 -5 5 a 5 5 0 0 1 -5 -5 m 10 0 h 5"/>
<g class="sequence">
<g class="terminal">
<rect height="22" rx="10" ry="10" width="52" x="35" y="3104"/>
<text x="61" y="3120">
&quot;if&quot;</text>
</g>
<g class="labeledbox">
<rect height="79" width="180" x="97" y="3068"/>
<path d=" M 97 3115 h 8 m 124 0 h 48"/>
<text class="comment" x="187" y="3091">
Lookahead: Must match</text>
<g class="repeat">
<path d=" M 105 3115 h 12 m 100 0 h 12 m -12 0 a 12 12 0 0 1 12 12 v 0 a 12 12 0 0 1 -12 12 m 0 0 h -100 m 53 0 l 5 -5 m 0 10 l -5 -5 m -53 0 a 12 12 0 0 1 -12 -12 v 0 a 12 12 0 0 1 12 -12"/>
<g/>
<g class="nonterminal">
<rect height="22" width="100" x="117" y="3104"/>
<text x="167" y="3120">
WHITESPACE</text>
</g>
</g>
</g>
<path d=" M 87 3115 h 10"/>
</g>
<path d=" M 287 3115 h 5 a 5 5 0 0 1 5 -5 a 5 5 0 0 1 5 5 a 5 5 0 0 1 -5 5 a 5 5 0 0 1 -5 -5"/>
<path d=" M 25 3115 h 10"/>
<path d=" M 277 3115 h 10"/>
</g>
</g>
<g class="verticalgrid">
<text class="comment" x="60" y="3174">
THEN (atomic)</text>
<g class="sequence">
<path d=" M 10 3238 a 5 5 0 0 1 5 -5 a 5 5 0 0 1 5 5 a 5 5 0 0 1 -5 5 a 5 5 0 0 1 -5 -5 m 10 0 h 5"/>
<g class="sequence">
<g class="terminal">
<rect height="22" rx="10" ry="10" width="68" x="35" y="3227"/>
<text x="69" y="3243">
&quot;then&quot;</text>
</g>
<g class="labeledbox">
<rect height="79" width="180" x="113" y="3191"/>
<path d=" M 113 3238 h 8 m 124 0 h 48"/>
<text class="comment" x="203" y="3214">
Lookahead: Must match</text>
<g class="repeat">
<path d=" M 121 3238 h 12 m 100 0 h 12 m -12 0 a 12 12 0 0 1 12 12 v 0 a 12 12 0 0 1 -12 12 m 0 0 h -100 m 53 0 l 5 -5 m 0 10 l -5 -5 m -53 0 a 12 12 0 0 1 -12 -12 v 0 a 12 12 0 0 1 12 -12"/>
<g/>
<g class="nonterminal">
<rect height="22" width="100" x="133" y="3227"/>
<text x="183" y="3243">
WHITESPACE</text>
</g>
</g>
</g>
<path d=" M 103 3238 h 10"/>
</g>
<path d=" M 303 3238 h 5 a 5 5 0 0 1 5 -5 a 5 5 0 0 1 5 5 a 5 5 0 0 1 -5 5 a 5 5 0 0 1 -5 -5"/>
<path d=" M 25 3238 h 10"/>
<path d=" M 293 3238 h 10"/>
</g>
</g>
<g class="verticalgrid">
<text class="comment" x="60" y="3297">
ELSE (atomic)</text>
<g class="sequence">
<path d=" M 10 3361 a 5 5 0 0 1 5 -5 a 5 5 0 0 1 5 5 a 5 5 0 0 1 -5 5 a 5 5 0 0 1 -5 -5 m 10 0 h 5"/>
<g class="sequence">
<g class="terminal">
<rect height="22" rx="10" ry="10" width="68" x="35" y="3350"/>
<text x="69" y="3366">
&quot;else&quot;</text>
</g>
<g class="labeledbox">
<rect height="112" width="188" x="113" y="3314"/>
<path d=" M 113 3361 h 8 m 172 0 h 8"/>
<text class="comment" x="203" y="3337">
Lookahead: Must match</text>
<g class="choice">
<path d=" M 121 3361 h 24 m 124 0 h 24"/>
<g class="repeat">
<path d=" M 145 3361 h 12 m 100 0 h 12 m -12 0 a 12 12 0 0 1 12 12 v 0 a 12 12 0 0 1 -12 12 m 0 0 h -100 m 53 0 l 5 -5 m 0 10 l -5 -5 m -53 0 a 12 12 0 0 1 -12 -12 v 0 a 12 12 0 0 1 12 -12"/>
<g/>
<g class="nonterminal">
<rect height="22" width="100" x="157" y="3350"/>
<text x="207" y="3366">
WHITESPACE</text>
</g>
</g>
<path d=" M 121 3361 a 12 12 0 0 1 12 12 v 22 m 148 0 v -22 a 12 12 0 0 1 12 -12"/>
<path d=" M 133 3395 v 0 a 12 12 0 0 0 12 12 m 44 0 h 80 m -37 0 l -5 -5 m 0 10 l 5 -5 m 37 0 a 12 12 0 0 0 12 -12 v 0"/>
<g class="terminal">
<rect height="22" rx="10" ry="10" width="44" x="145" y="3396"/>
<text x="167" y="3412">
&quot;:&quot;</text>
</g>
</g>
</g>
<path d=" M 103 3361 h 10"/>
</g>
<path d=" M 311 3361 h 5 a 5 5 0 0 1 5 -5 a 5 5 0 0 1 5 5 a 5 5 0 0 1 -5 5 a 5 5 0 0 1 -5 -5"/>
<path d=" M 25 3361 h 10"/>
<path d=" M 301 3361 h 10"/>
</g>
</g>
<g class="verticalgrid">
<text class="comment" x="57" y="3453">
END (atomic)</text>
<g class="sequence">
<path d=" M 10 3517 a 5 5 0 0 1 5 -5 a 5 5 0 0 1 5 5 a 5 5 0 0 1 -5 5 a 5 5 0 0 1 -5 -5 m 10 0 h 5"/>
<g class="sequence">
<g class="terminal">
<rect height="22" rx="10" ry="10" width="60" x="35" y="3506"/>
<text x="65" y="3522">
&quot;end&quot;</text>
</g>
<g class="labeledbox">
<rect height="112" width="188" x="105" y="3470"/>
<path d=" M 105 3517 h 8 m 172 0 h 8"/>
<text class="comment" x="195" y="3493">
Lookahead: Must match</text>
<g class="choice">
<path d=" M 113 3517 h 24 m 124 0 h 24"/>
<g class="repeat">
<path d=" M 137 3517 h 12 m 100 0 h 12 m -12 0 a 12 12 0 0 1 12 12 v 0 a 12 12 0 0 1 -12 12 m 0 0 h -100 m 53 0 l 5 -5 m 0 10 l -5 -5 m -53 0 a 12 12 0 0 1 -12 -12 v 0 a 12 12 0 0 1 12 -12"/>
<g/>
<g class="nonterminal">
<rect height="22" width="100" x="149" y="3506"/>
<text x="199" y="3522">
WHITESPACE</text>
</g>
</g>
<path d=" M 113 3517 a 12 12 0 0 1 12 12 v 22 m 148 0 v -22 a 12 12 0 0 1 12 -12"/>
<path d=" M 125 3551 v 0 a 12 12 0 0 0 12 12 m 44 0 h 80 m -37 0 l -5 -5 m 0 10 l 5 -5 m 37 0 a 12 12 0 0 0 12 -12 v 0"/>
<g class="nonterminal">
<rect height="22" width="44" x="137" y="3552"/>
<text x="159" y="3568">
EOI</text>
</g>
</g>
</g>
<path d=" M 95 3517 h 10"/>
</g>
<path d=" M 303 3517 h 5 a 5 5 0 0 1 5 -5 a 5 5 0 0 1 5 5 a 5 5 0 0 1 -5 5 a 5 5 0 0 1 -5 -5"/>
<path d=" M 25 3517 h 10"/>
<path d=" M 293 3517 h 10"/>
</g>
</g>
<g class="verticalgrid">
<text class="comment" x="78" y="3609">
SPACE_TAB (silent)</text>
<g class="sequence">
<path d=" M 10 3637 a 5 5 0 0 1 5 -5 a 5 5 0 0 1 5 5 a 5 5 0 0 1 -5 5 a 5 5 0 0 1 -5 -5 m 10 0 h 5"/>
<g class="choice">
<path d=" M 35 3637 h 24 m 44 0 h 32"/>
<g class="terminal">
<rect height="22" rx="10" ry="10" width="44" x="59" y="3626"/>
<text x="81" y="3642">
&quot; &quot;</text>
</g>
<path d=" M 35 3637 a 12 12 0 0 1 12 12 v 9 m 76 0 v -9 a 12 12 0 0 1 12 -12"/>
<path d=" M 47 3658 v 0 a 12 12 0 0 0 12 12 m 52 0 h 0 a 12 12 0 0 0 12 -12 v 0"/>
<g class="terminal">
<rect height="22" rx="10" ry="10" width="52" x="59" y="3659"/>
<text x="85" y="3675">
&quot;\t&quot;</text>
</g>
</g>
<path d=" M 145 3637 h 5 a 5 5 0 0 1 5 -5 a 5 5 0 0 1 5 5 a 5 5 0 0 1 -5 5 a 5 5 0 0 1 -5 -5"/>
<path d=" M 25 3637 h 10"/>
<path d=" M 135 3637 h 10"/>
</g>
</g>
<g class="verticalgrid">
<text class="comment" x="60" y="3708">
CRLF (silent)</text>
<g class="sequence">
<path d=" M 10 3736 a 5 5 0 0 1 5 -5 a 5 5 0 0 1 5 5 a 5 5 0 0 1 -5 5 a 5 5 0 0 1 -5 -5 m 10 0 h 5"/>
<g class="choice">
<path d=" M 35 3736 h 24 m 52 0 h 40"/>
<g class="terminal">
<rect height="22" rx="10" ry="10" width="52" x="59" y="3725"/>
<text x="85" y="3741">
&quot;\n&quot;</text>
</g>
<path d=" M 35 3736 a 12 12 0 0 1 12 12 v 9 m 92 0 v -9 a 12 12 0 0 1 12 -12"/>
<path d=" M 47 3757 v 0 a 12 12 0 0 0 12 12 m 68 0 h 0 a 12 12 0 0 0 12 -12 v 0"/>
<g class="terminal">
<rect height="22" rx="10" ry="10" width="68" x="59" y="3758"/>
<text x="93" y="3774">
&quot;\r\n&quot;</text>
</g>
</g>
<path d=" M 161 3736 h 5 a 5 5 0 0 1 5 -5 a 5 5 0 0 1 5 5 a 5 5 0 0 1 -5 5 a 5 5 0 0 1 -5 -5"/>
<path d=" M 25 3736 h 10"/>
<path d=" M 151 3736 h 10"/>
</g>
</g>
<g class="verticalgrid">
<text class="comment" x="81" y="3807">
WHITESPACE (silent)</text>
<g class="sequence">
<path d=" M 10 3835 a 5 5 0 0 1 5 -5 a 5 5 0 0 1 5 5 a 5 5 0 0 1 -5 5 a 5 5 0 0 1 -5 -5 m 10 0 h 5"/>
<g class="choice">
<path d=" M 35 3835 h 24 m 92 0 h 24"/>
<g class="nonterminal">
<rect height="22" width="92" x="59" y="3824"/>
<text x="105" y="3840">
SPACE_TAB</text>
</g>
<path d=" M 35 3835 a 12 12 0 0 1 12 12 v 9 m 116 0 v -9 a 12 12 0 0 1 12 -12"/>
<path d=" M 47 3856 v 0 a 12 12 0 0 0 12 12 m 52 0 h 40 a 12 12 0 0 0 12 -12 v 0"/>
<g class="nonterminal">
<rect height="22" width="52" x="59" y="3857"/>
<text x="85" y="3873">
CRLF</text>
</g>
</g>
<path d=" M 185 3835 h 5 a 5 5 0 0 1 5 -5 a 5 5 0 0 1 5 5 a 5 5 0 0 1 -5 5 a 5 5 0 0 1 -5 -5"/>
<path d=" M 25 3835 h 10"/>
<path d=" M 175 3835 h 10"/>
</g>
</g>
</g>
</svg>

